# Blender v2.80 (sub 75) OBJ File: ''
# www.blender.org
mtllib CandyCane.mtl
o Cylinder.001
v -0.000001 -0.000000 -0.562500
v -0.000001 8.982489 -0.562498
v 0.244059 8.982489 -0.506793
v 0.244059 -0.000000 -0.506795
v 0.439780 8.982489 -0.350711
v 0.439780 -0.000000 -0.350713
v 0.548396 8.982489 -0.125166
v 0.548396 -0.000000 -0.125168
v 0.548396 8.982489 0.125170
v 0.548396 -0.000000 0.125168
v 0.439780 8.982489 0.350715
v 0.439780 -0.000000 0.350713
v 0.244059 8.982489 0.506796
v 0.244059 -0.000000 0.506795
v -0.000001 8.982489 0.562501
v -0.000001 -0.000000 0.562500
v -0.244060 8.982489 0.506796
v -0.244060 -0.000000 0.506795
v -0.439781 8.982489 0.350715
v -0.439781 -0.000000 0.350713
v -0.548398 8.982489 0.125170
v -0.548398 -0.000000 0.125168
v -0.548398 8.982489 -0.125166
v -0.548398 -0.000000 -0.125168
v -0.439781 8.982489 -0.350711
v -0.439781 -0.000000 -0.350713
v -0.244060 8.982489 -0.506793
v -0.244060 -0.000000 -0.506795
v -0.069779 9.431775 -0.562498
v 0.162336 9.507194 -0.506793
v 0.348478 9.567675 -0.350711
v 0.451778 9.601239 -0.125166
v 0.451778 9.601239 0.125170
v 0.348478 9.567675 0.350715
v 0.162336 9.507194 0.506796
v -0.069779 9.431775 0.562501
v -0.301892 9.356357 0.506796
v -0.488034 9.295876 0.350715
v -0.591335 9.262311 0.125170
v -0.591335 9.262311 -0.125166
v -0.488034 9.295876 -0.350711
v -0.301892 9.356357 -0.506793
v -0.274978 9.837509 -0.562498
v -0.077529 9.980963 -0.506793
v 0.080812 10.096005 -0.350711
v 0.168685 10.159849 -0.125166
v 0.168685 10.159849 0.125170
v 0.080812 10.096005 0.350715
v -0.077529 9.980963 0.506796
v -0.274978 9.837509 0.562501
v -0.472426 9.694055 0.506796
v -0.630767 9.579012 0.350714
v -0.718641 9.515169 0.125170
v -0.718641 9.515169 -0.125166
v -0.630767 9.579012 -0.350711
v -0.472426 9.694055 -0.506793
v -0.595513 10.159975 -0.562498
v -0.452058 10.357422 -0.506793
v -0.337016 10.515764 -0.350711
v -0.273173 10.603638 -0.125166
v -0.273173 10.603638 0.125170
v -0.337016 10.515764 0.350715
v -0.452058 10.357422 0.506796
v -0.595513 10.159975 0.562502
v -0.738967 9.962526 0.506797
v -0.854008 9.804184 0.350715
v -0.917853 9.716311 0.125170
v -0.917853 9.716311 -0.125166
v -0.854008 9.804184 -0.350711
v -0.738967 9.962526 -0.506793
v -1.000007 10.367607 -0.562498
v -0.924588 10.599721 -0.506793
v -0.864107 10.785863 -0.350711
v -0.830543 10.889164 -0.125166
v -0.830543 10.889164 0.125170
v -0.864107 10.785863 0.350715
v -0.924588 10.599721 0.506797
v -1.000007 10.367607 0.562502
v -1.075425 10.135492 0.506797
v -1.135906 9.949350 0.350714
v -1.169471 9.846049 0.125170
v -1.169471 9.846049 -0.125166
v -1.135906 9.949350 -0.350711
v -1.075425 10.135492 -0.506793
v -1.448866 10.440082 -0.562498
v -1.448865 10.684141 -0.506793
v -1.448865 10.879862 -0.350711
v -1.448866 10.988479 -0.125166
v -1.448866 10.988479 0.125170
v -1.448865 10.879862 0.350714
v -1.448865 10.684141 0.506797
v -1.448866 10.440082 0.562502
v -1.448865 10.196021 0.506797
v -1.448864 10.000300 0.350715
v -1.448865 9.891684 0.125169
v -1.448865 9.891684 -0.125166
v -1.448864 10.000300 -0.350711
v -1.448865 10.196021 -0.506793
v -1.898152 10.370304 -0.562498
v -1.973569 10.602419 -0.506793
v -2.034051 10.788560 -0.350711
v -2.067616 10.891860 -0.125166
v -2.067616 10.891860 0.125170
v -2.034051 10.788560 0.350714
v -1.973569 10.602419 0.506797
v -1.898152 10.370304 0.562502
v -1.822732 10.138188 0.506797
v -1.762250 9.952048 0.350714
v -1.728687 9.848746 0.125169
v -1.728687 9.848746 -0.125166
v -1.762250 9.952048 -0.350711
v -1.822732 10.138188 -0.506793
v -2.303886 10.165105 -0.562498
v -2.447339 10.362554 -0.506793
v -2.562382 10.520894 -0.350712
v -2.626226 10.608767 -0.125166
v -2.626226 10.608767 0.125170
v -2.562382 10.520894 0.350714
v -2.447339 10.362554 0.506797
v -2.303886 10.165105 0.562502
v -2.160430 9.967655 0.506797
v -2.045388 9.809316 0.350715
v -1.981545 9.721440 0.125169
v -1.981545 9.721440 -0.125166
v -2.045388 9.809316 -0.350711
v -2.160430 9.967655 -0.506793
v -2.626352 9.844570 -0.562498
v -2.823799 9.988025 -0.506793
v -2.982141 10.103065 -0.350712
v -3.070014 10.166908 -0.125166
v -3.070014 10.166908 0.125170
v -2.982141 10.103065 0.350714
v -2.823799 9.988025 0.506797
v -2.626352 9.844570 0.562502
v -2.428901 9.701115 0.506797
v -2.270561 9.586075 0.350714
v -2.182687 9.522228 0.125169
v -2.182687 9.522228 -0.125166
v -2.270561 9.586075 -0.350711
v -2.428901 9.701115 -0.506793
v -2.833984 9.440076 -0.562498
v -3.066098 9.515494 -0.506793
v -3.252239 9.575974 -0.350712
v -3.355540 9.609538 -0.125166
v -3.355540 9.609538 0.125170
v -3.252239 9.575974 0.350714
v -3.066098 9.515494 0.506797
v -2.833984 9.440076 0.562502
v -2.601868 9.364656 0.506797
v -2.415727 9.304177 0.350714
v -2.312425 9.270611 0.125169
v -2.312425 9.270611 -0.125166
v -2.415727 9.304177 -0.350711
v -2.601868 9.364656 -0.506793
v -2.906459 8.991217 -0.562498
v -3.150517 8.991217 -0.506793
v -3.346238 8.991216 -0.350712
v -3.454855 8.991215 -0.125166
v -3.454855 8.991215 0.125170
v -3.346238 8.991216 0.350714
v -3.150517 8.991217 0.506797
v -2.906459 8.991217 0.562502
v -2.662398 8.991216 0.506797
v -2.466678 8.991218 0.350714
v -2.358059 8.991217 0.125169
v -2.358059 8.991217 -0.125166
v -2.466678 8.991218 -0.350711
v -2.662398 8.991216 -0.506793
v -2.906457 7.991217 -0.562498
v -3.150516 7.991217 -0.506793
v -3.346236 7.991216 -0.350712
v -3.454853 7.991215 -0.125167
v -3.454853 7.991215 0.125169
v -3.346236 7.991216 0.350714
v -3.150516 7.991217 0.506797
v -2.906457 7.991217 0.562502
v -2.662396 7.991216 0.506797
v -2.466676 7.991218 0.350714
v -2.358057 7.991217 0.125169
v -2.358057 7.991217 -0.125167
v -2.466676 7.991218 -0.350712
v -2.662396 7.991216 -0.506793
v -3.150517 8.491217 -0.506793
v -2.662397 8.491216 0.506797
v -2.906458 8.491217 0.562502
v -2.906458 8.491217 -0.562498
v -3.150517 8.491217 0.506797
v -2.662397 8.491216 -0.506793
v -3.346237 8.491216 0.350714
v -2.466677 8.491218 -0.350712
v -3.454854 8.491215 0.125169
v -2.466677 8.491218 0.350714
v -2.358058 8.491217 0.125169
v -3.346237 8.491216 -0.350712
v -3.454854 8.491215 -0.125167
v -2.358058 8.491217 -0.125167
vt 0.949426 0.542603
vt 0.949445 0.993801
vt 0.885240 0.993801
vt 0.885224 0.542604
vt 0.821034 0.993802
vt 0.821022 0.542604
vt 0.756829 0.993802
vt 0.756820 0.542604
vt 0.692624 0.993802
vt 0.692618 0.542604
vt 0.628418 0.993802
vt 0.628416 0.542604
vt 0.564213 0.993802
vt 0.564214 0.542604
vt 0.500007 0.993802
vt 0.500012 0.542604
vt 0.435802 0.993802
vt 0.435810 0.542604
vt 0.371597 0.993801
vt 0.371607 0.542604
vt 0.307391 0.993801
vt 0.307405 0.542604
vt 0.243186 0.993801
vt 0.243203 0.542604
vt 0.178981 0.993801
vt 0.179001 0.542604
vt 0.114775 0.993801
vt 0.114799 0.542604
vt 0.050570 0.993801
vt 0.050597 0.542603
vt 0.174464 0.224086
vt 0.202528 0.165810
vt 0.202528 0.347043
vt 0.174464 0.288767
vt 0.379216 0.125483
vt 0.429786 0.165811
vt 0.429786 0.347043
vt 0.379216 0.387371
vt 0.457850 0.224086
vt 0.457850 0.288767
vt 0.253097 0.125483
vt 0.316157 0.111090
vt 0.316157 0.401763
vt 0.253097 0.387371
vt 0.178992 0.544160
vt 0.243197 0.544160
vt 0.243197 0.581727
vt 0.178992 0.581727
vt 0.500015 0.544160
vt 0.564220 0.544160
vt 0.564220 0.581727
vt 0.500015 0.581727
vt 0.821039 0.544160
vt 0.885243 0.544160
vt 0.885243 0.581727
vt 0.821039 0.581727
vt 0.050583 0.544160
vt 0.114787 0.544160
vt 0.114787 0.581727
vt 0.050583 0.581727
vt 0.371606 0.544160
vt 0.435811 0.544160
vt 0.435811 0.581727
vt 0.371606 0.581727
vt 0.692629 0.544160
vt 0.756834 0.544160
vt 0.756834 0.581727
vt 0.692629 0.581727
vt 0.114787 0.619295
vt 0.050583 0.619295
vt 0.628425 0.581727
vt 0.628425 0.619295
vt 0.564220 0.619295
vt 0.178992 0.619295
vt 0.692629 0.619295
vt 0.243197 0.619295
vt 0.756834 0.619295
vt 0.628425 0.544160
vt 0.307401 0.544160
vt 0.307401 0.581727
vt 0.949448 0.544160
vt 0.949448 0.581727
vt 0.885243 0.619295
vt 0.949448 0.619295
vt 0.949448 0.656863
vt 0.885243 0.656863
vt 0.435811 0.619295
vt 0.500015 0.619295
vt 0.500015 0.656863
vt 0.435811 0.656863
vt 0.564220 0.656863
vt 0.114787 0.656863
vt 0.050583 0.656863
vt 0.628425 0.656863
vt 0.178992 0.656863
vt 0.371606 0.619295
vt 0.821039 0.619295
vt 0.307401 0.619295
vt 0.756834 0.656863
vt 0.821039 0.656863
vt 0.821039 0.694431
vt 0.756834 0.694431
vt 0.307401 0.656863
vt 0.371606 0.656863
vt 0.371606 0.694431
vt 0.307401 0.694431
vt 0.885243 0.694431
vt 0.435811 0.694431
vt 0.949448 0.694431
vt 0.500015 0.694431
vt 0.243197 0.656863
vt 0.692629 0.656863
vt 0.692629 0.694431
vt 0.756834 0.731999
vt 0.692629 0.731999
vt 0.243197 0.694431
vt 0.307401 0.731999
vt 0.243197 0.731999
vt 0.821039 0.731999
vt 0.371606 0.731999
vt 0.885243 0.731999
vt 0.435811 0.731999
vt 0.178992 0.694431
vt 0.628425 0.694431
vt 0.114787 0.694431
vt 0.564220 0.694431
vt 0.050583 0.694431
vt 0.114787 0.731999
vt 0.178992 0.731999
vt 0.178992 0.769566
vt 0.114787 0.769566
vt 0.628425 0.731999
vt 0.692629 0.769566
vt 0.628425 0.769566
vt 0.243197 0.769566
vt 0.756834 0.769566
vt 0.307401 0.769566
vt 0.821039 0.769566
vt 0.564220 0.731999
vt 0.050583 0.731999
vt 0.500015 0.731999
vt 0.949448 0.731999
vt 0.500015 0.769566
vt 0.564220 0.769566
vt 0.564220 0.807134
vt 0.500015 0.807134
vt 0.050583 0.769566
vt 0.114787 0.807134
vt 0.050583 0.807134
vt 0.628425 0.807134
vt 0.178992 0.807134
vt 0.692629 0.807134
vt 0.243197 0.807134
vt 0.435811 0.769566
vt 0.949448 0.769566
vt 0.885243 0.769566
vt 0.371606 0.769566
vt 0.821039 0.807134
vt 0.885243 0.807134
vt 0.885243 0.844702
vt 0.821039 0.844702
vt 0.371606 0.807134
vt 0.435811 0.807134
vt 0.435811 0.844702
vt 0.371606 0.844702
vt 0.949448 0.807134
vt 0.949448 0.844702
vt 0.500015 0.844702
vt 0.564220 0.844702
vt 0.114787 0.844702
vt 0.050583 0.844702
vt 0.307401 0.807134
vt 0.756834 0.807134
vt 0.756834 0.844702
vt 0.821039 0.882270
vt 0.756834 0.882270
vt 0.307401 0.844702
vt 0.371606 0.882270
vt 0.307401 0.882270
vt 0.885243 0.882270
vt 0.435811 0.882270
vt 0.949448 0.882270
vt 0.500015 0.882270
vt 0.243197 0.844702
vt 0.692629 0.844702
vt 0.178992 0.844702
vt 0.628425 0.844702
vt 0.178992 0.882270
vt 0.243197 0.882270
vt 0.243197 0.919837
vt 0.178992 0.919837
vt 0.692629 0.882270
vt 0.756834 0.919837
vt 0.692629 0.919837
vt 0.307401 0.919837
vt 0.821039 0.919837
vt 0.371606 0.919837
vt 0.885243 0.919837
vt 0.628425 0.882270
vt 0.114787 0.882270
vt 0.564220 0.882270
vt 0.050583 0.882270
vt 0.692629 0.957405
vt 0.628425 0.957405
vt 0.628425 0.919837
vt 0.243197 0.957405
vt 0.178992 0.957405
vt 0.307401 0.957405
vt 0.371606 0.957405
vt 0.564220 0.957405
vt 0.564220 0.919837
vt 0.500015 0.957405
vt 0.500015 0.919837
vt 0.114787 0.919837
vt 0.050583 0.919837
vt 0.435811 0.919837
vt 0.949448 0.919837
vt 0.552966 0.360700
vt 0.520600 0.293641
vt 0.520535 0.219180
vt 0.552785 0.152065
vt 0.756411 0.406949
vt 0.683831 0.423581
vt 0.683541 0.088956
vt 0.756149 0.105463
vt 0.611222 0.407075
vt 0.610961 0.105588
vt 0.814586 0.360473
vt 0.814406 0.151838
vt 0.846836 0.293358
vt 0.846771 0.218897
vt 0.949448 0.957405
vt 0.885243 0.957405
vt 0.821039 0.957405
vt 0.885243 0.994973
vt 0.821039 0.994973
vt 0.435811 0.957405
vt 0.435811 0.994973
vt 0.371606 0.994973
vt 0.949448 0.994973
vt 0.500015 0.994973
vt 0.564220 0.994973
vt 0.114787 0.957405
vt 0.114787 0.994973
vt 0.050583 0.994973
vt 0.050583 0.957405
vt 0.628425 0.994973
vt 0.178992 0.994973
vt 0.307401 0.994973
vt 0.756834 0.994973
vt 0.756834 0.957405
vt 0.243197 0.994973
vt 0.692629 0.994973
vn -0.0000 -0.6603 -0.7510
vn 0.0109 0.0017 -0.9999
vn 0.4424 0.0349 -0.8962
vn 0.3259 -0.6603 -0.6766
vn 0.7845 0.0608 -0.6171
vn 0.5872 -0.6603 -0.4683
vn 0.9727 0.0747 -0.2196
vn 0.7322 -0.6603 -0.1671
vn 0.9727 0.0747 0.2196
vn 0.7322 -0.6603 0.1671
vn 0.7845 0.0608 0.6171
vn 0.5872 -0.6603 0.4683
vn 0.4424 0.0349 0.8962
vn 0.3259 -0.6603 0.6766
vn 0.0109 0.0017 0.9999
vn -0.0000 -0.6603 0.7510
vn -0.4248 -0.0323 0.9047
vn -0.3259 -0.6603 0.6766
vn -0.7762 -0.0597 0.6277
vn -0.5872 -0.6603 0.4683
vn -0.9716 -0.0750 0.2242
vn -0.7322 -0.6603 0.1671
vn -0.9716 -0.0750 -0.2242
vn -0.7322 -0.6603 -0.1671
vn -0.7762 -0.0597 -0.6277
vn -0.5872 -0.6603 -0.4683
vn -0.4248 -0.0323 -0.9047
vn -0.3259 -0.6603 -0.6766
vn -0.9276 -0.2965 -0.2275
vn -0.7361 -0.2357 -0.6345
vn 0.4298 0.1384 0.8922
vn 0.0212 0.0068 0.9998
vn 0.4298 0.1384 -0.8922
vn 0.7521 0.2424 -0.6129
vn -0.3956 -0.1270 -0.9096
vn 0.0212 0.0068 -0.9998
vn -0.3956 -0.1270 0.9096
vn -0.7361 -0.2357 0.6345
vn 0.9289 0.2996 -0.2179
vn 0.9289 0.2996 0.2179
vn -0.3370 -0.2430 -0.9096
vn 0.0180 0.0130 -0.9998
vn 0.7521 0.2424 0.6129
vn 0.6403 0.4630 0.6129
vn 0.3660 0.2645 0.8922
vn -0.6272 -0.4516 -0.6345
vn 0.7908 0.5720 0.2179
vn -0.7905 -0.5686 -0.2275
vn 0.7908 0.5720 -0.2179
vn -0.9276 -0.2965 0.2275
vn 0.3660 0.2645 -0.8922
vn 0.0131 0.0179 -0.9998
vn 0.2664 0.3647 -0.8922
vn -0.3370 -0.2430 0.9096
vn 0.0180 0.0130 0.9998
vn 0.0131 0.0179 0.9998
vn -0.2454 -0.3353 0.9096
vn 0.2664 0.3647 0.8922
vn -0.2454 -0.3353 -0.9096
vn 0.4659 0.6382 0.6129
vn -0.4570 -0.6233 -0.6345
vn -0.6272 -0.4516 0.6345
vn 0.6403 0.4630 -0.6129
vn -0.7905 -0.5686 0.2275
vn 0.5754 0.7883 -0.2179
vn 0.4659 0.6382 -0.6129
vn 0.2459 0.7509 -0.6129
vn 0.3036 0.9276 -0.2179
vn -0.5761 -0.7851 0.2275
vn -0.4570 -0.6233 0.6345
vn -0.2420 -0.7340 0.6345
vn -0.3053 -0.9247 0.2275
vn 0.1407 0.4291 -0.8922
vn -0.1298 -0.3947 0.9096
vn 0.0069 0.0211 -0.9998
vn 0.0069 0.0211 0.9998
vn -0.5761 -0.7851 -0.2275
vn 0.5754 0.7883 0.2179
vn 0.3036 0.9276 0.2179
vn 0.0021 0.9760 -0.2179
vn 0.0021 0.9760 0.2179
vn -0.3053 -0.9247 -0.2275
vn -0.0047 -0.9738 0.2275
vn -0.0047 -0.9738 -0.2275
vn 0.0018 0.7902 -0.6129
vn -0.0033 -0.7729 0.6345
vn 0.0012 0.4516 -0.8922
vn -0.0015 -0.4155 0.9096
vn -0.2420 -0.7340 -0.6345
vn 0.2459 0.7509 0.6129
vn -0.1298 -0.3947 -0.9096
vn 0.1407 0.4291 0.8922
vn -0.0015 -0.4155 -0.9096
vn -0.0033 -0.7729 -0.6345
vn 0.2357 -0.7361 -0.6345
vn 0.1270 -0.3956 -0.9096
vn 0.0018 0.7902 0.6129
vn -0.2996 0.9289 0.2179
vn -0.2424 0.7521 0.6129
vn 0.2965 -0.9276 -0.2275
vn -0.2996 0.9289 -0.2179
vn 0.2965 -0.9276 0.2275
vn -0.2424 0.7521 -0.6129
vn 0.0012 0.4516 0.8922
vn 0.0001 0.0222 -0.9998
vn 0.0001 0.0222 0.9998
vn -0.0068 0.0212 0.9998
vn -0.1384 0.4298 0.8922
vn -0.2645 0.3660 0.8922
vn -0.0130 0.0180 0.9998
vn -0.0068 0.0212 -0.9998
vn 0.2430 -0.3370 -0.9096
vn -0.0130 0.0180 -0.9998
vn -0.4630 0.6403 0.6129
vn 0.4516 -0.6272 -0.6345
vn -0.5720 0.7908 0.2179
vn 0.5686 -0.7905 -0.2275
vn 0.1270 -0.3956 0.9096
vn -0.1384 0.4298 -0.8922
vn 0.2357 -0.7361 0.6345
vn -0.4630 0.6403 -0.6129
vn -0.2645 0.3660 -0.8922
vn -0.3647 0.2664 -0.8922
vn -0.6382 0.4659 -0.6129
vn 0.4516 -0.6272 0.6345
vn 0.2430 -0.3370 0.9096
vn 0.3353 -0.2454 0.9096
vn 0.6233 -0.4570 0.6345
vn -0.0179 0.0131 -0.9998
vn -0.0179 0.0131 0.9998
vn -0.3647 0.2664 0.8922
vn 0.3353 -0.2454 -0.9096
vn 0.5686 -0.7905 0.2275
vn -0.5720 0.7908 -0.2179
vn -0.7883 0.5754 -0.2179
vn -0.7509 0.2459 -0.6129
vn -0.9276 0.3036 -0.2179
vn 0.7851 -0.5761 0.2275
vn 0.7340 -0.2420 0.6345
vn 0.9247 -0.3053 0.2275
vn -0.4291 0.1407 -0.8922
vn 0.3947 -0.1298 0.9096
vn -0.0211 0.0069 -0.9998
vn -0.0211 0.0069 0.9998
vn 0.7851 -0.5761 -0.2275
vn -0.7883 0.5754 0.2179
vn 0.6233 -0.4570 -0.6345
vn -0.6382 0.4659 0.6129
vn 0.7340 -0.2420 -0.6345
vn 0.9247 -0.3053 -0.2275
vn 0.9712 -0.0796 -0.2245
vn 0.7756 -0.0631 -0.6281
vn -0.9276 0.3036 0.2179
vn -0.9726 0.0768 -0.2196
vn -0.9726 0.0768 0.2196
vn 0.9712 -0.0796 0.2245
vn -0.7844 0.0626 -0.6170
vn 0.7756 -0.0631 0.6281
vn -0.4425 0.0361 -0.8960
vn -0.7509 0.2459 0.6129
vn 0.3947 -0.1298 -0.9096
vn -0.4291 0.1407 0.8922
vn -0.9749 -0.0000 0.2225
vn -0.7818 -0.0000 0.6235
vn -0.7844 0.0626 0.6170
vn 0.9749 0.0000 -0.2225
vn 0.7818 0.0000 -0.6235
vn 0.9749 0.0000 0.2225
vn 0.7818 0.0000 0.6235
vn -0.4339 -0.0000 0.9010
vn -0.4425 0.0361 0.8960
vn -0.0000 -0.0000 1.0000
vn -0.0113 0.0018 0.9999
vn 0.4241 -0.0338 -0.9050
vn -0.0113 0.0018 -0.9999
vn 0.4241 -0.0338 0.9050
vn -0.0000 0.0000 -1.0000
vn -0.4339 -0.0000 -0.9010
vn -0.7818 -0.0000 -0.6235
vn 0.4339 0.0000 0.9010
vn 0.4339 0.0000 -0.9010
vn -0.9749 -0.0000 -0.2225
usemtl None
s 1
f 1/1/1 2/2/2 3/3/3 4/4/4
f 4/4/4 3/3/3 5/5/5 6/6/6
f 6/6/6 5/5/5 7/7/7 8/8/8
f 8/8/8 7/7/7 9/9/9 10/10/10
f 10/10/10 9/9/9 11/11/11 12/12/12
f 12/12/12 11/11/11 13/13/13 14/14/14
f 14/14/14 13/13/13 15/15/15 16/16/16
f 16/16/16 15/15/15 17/17/17 18/18/18
f 18/18/18 17/17/17 19/19/19 20/20/20
f 20/20/20 19/19/19 21/21/21 22/22/22
f 22/22/22 21/21/21 23/23/23 24/24/24
f 24/24/24 23/23/23 25/25/25 26/26/26
f 26/26/26 25/25/25 27/27/27 28/28/28
f 28/28/28 27/27/27 2/29/2 1/30/1
f 24/31/24 26/32/26 20/33/20 22/34/22
f 4/35/4 6/36/6 12/37/12 14/38/14
f 6/36/6 8/39/8 10/40/10 12/37/12
f 28/41/28 1/42/1 16/43/16 18/44/18
f 1/42/1 4/35/4 14/38/14 16/43/16
f 26/32/26 28/41/28 18/44/18 20/33/20
f 25/45/25 23/46/23 40/47/29 41/48/30
f 15/49/15 13/50/13 35/51/31 36/52/32
f 5/53/5 3/54/3 30/55/33 31/56/34
f 2/57/2 27/58/27 42/59/35 29/60/36
f 19/61/19 17/62/17 37/63/37 38/64/38
f 9/65/9 7/66/7 32/67/39 33/68/40
f 29/60/36 42/59/35 56/69/41 43/70/42
f 35/51/31 34/71/43 48/72/44 49/73/45
f 42/59/35 41/48/30 55/74/46 56/69/41
f 34/71/43 33/68/40 47/75/47 48/72/44
f 41/48/30 40/47/29 54/76/48 55/74/46
f 33/68/40 32/67/39 46/77/49 47/75/47
f 11/78/11 9/65/9 33/68/40 34/71/43
f 21/79/21 19/61/19 38/64/38 39/80/50
f 7/66/7 5/53/5 31/56/34 32/67/39
f 17/62/17 15/49/15 36/52/32 37/63/37
f 27/58/27 25/45/25 41/48/30 42/59/35
f 3/54/3 2/81/2 29/82/36 30/55/33
f 13/50/13 11/78/11 34/71/43 35/51/31
f 23/46/23 21/79/21 39/80/50 40/47/29
f 44/83/51 43/84/42 57/85/52 58/86/53
f 51/87/54 50/88/55 64/89/56 65/90/57
f 50/88/55 49/73/45 63/91/58 64/89/56
f 43/70/42 56/69/41 70/92/59 57/93/52
f 49/73/45 48/72/44 62/94/60 63/91/58
f 56/69/41 55/74/46 69/95/61 70/92/59
f 36/52/32 35/51/31 49/73/45 50/88/55
f 37/63/37 36/52/32 50/88/55 51/87/54
f 30/55/33 29/82/36 43/84/42 44/83/51
f 38/64/38 37/63/37 51/87/54 52/96/62
f 31/56/34 30/55/33 44/83/51 45/97/63
f 39/80/50 38/64/38 52/96/62 53/98/64
f 32/67/39 31/56/34 45/97/63 46/77/49
f 40/47/29 39/80/50 53/98/64 54/76/48
f 60/99/65 59/100/66 73/101/67 74/102/68
f 67/103/69 66/104/70 80/105/71 81/106/72
f 59/100/66 58/86/53 72/107/73 73/101/67
f 66/104/70 65/90/57 79/108/74 80/105/71
f 58/86/53 57/85/52 71/109/75 72/107/73
f 65/90/57 64/89/56 78/110/76 79/108/74
f 52/96/62 51/87/54 65/90/57 66/104/70
f 45/97/63 44/83/51 58/86/53 59/100/66
f 53/98/64 52/96/62 66/104/70 67/103/69
f 46/77/49 45/97/63 59/100/66 60/99/65
f 54/76/48 53/98/64 67/103/69 68/111/77
f 47/75/47 46/77/49 60/99/65 61/112/78
f 55/74/46 54/76/48 68/111/77 69/95/61
f 48/72/44 47/75/47 61/112/78 62/94/60
f 75/113/79 74/102/68 88/114/80 89/115/81
f 82/116/82 81/106/72 95/117/83 96/118/84
f 74/102/68 73/101/67 87/119/85 88/114/80
f 81/106/72 80/105/71 94/120/86 95/117/83
f 73/101/67 72/107/73 86/121/87 87/119/85
f 80/105/71 79/108/74 93/122/88 94/120/86
f 68/111/77 67/103/69 81/106/72 82/116/82
f 61/112/78 60/99/65 74/102/68 75/113/79
f 69/95/61 68/111/77 82/116/82 83/123/89
f 62/94/60 61/112/78 75/113/79 76/124/90
f 70/92/59 69/95/61 83/123/89 84/125/91
f 63/91/58 62/94/60 76/124/90 77/126/92
f 57/93/52 70/92/59 84/125/91 71/127/75
f 64/89/56 63/91/58 77/126/92 78/110/76
f 98/128/93 97/129/94 111/130/95 112/131/96
f 90/132/97 89/115/81 103/133/98 104/134/99
f 97/129/94 96/118/84 110/135/100 111/130/95
f 89/115/81 88/114/80 102/136/101 103/133/98
f 96/118/84 95/117/83 109/137/102 110/135/100
f 88/114/80 87/119/85 101/138/103 102/136/101
f 83/123/89 82/116/82 96/118/84 97/129/94
f 76/124/90 75/113/79 89/115/81 90/132/97
f 84/125/91 83/123/89 97/129/94 98/128/93
f 77/126/92 76/124/90 90/132/97 91/139/104
f 71/127/75 84/125/91 98/128/93 85/140/105
f 78/110/76 77/126/92 91/139/104 92/141/106
f 79/108/74 78/110/76 92/141/106 93/122/88
f 72/107/73 71/109/75 85/142/105 86/121/87
f 106/143/107 105/144/108 119/145/109 120/146/110
f 99/147/111 112/131/96 126/148/112 113/149/113
f 105/144/108 104/134/99 118/150/114 119/145/109
f 112/131/96 111/130/95 125/151/115 126/148/112
f 104/134/99 103/133/98 117/152/116 118/150/114
f 111/130/95 110/135/100 124/153/117 125/151/115
f 91/139/104 90/132/97 104/134/99 105/144/108
f 85/140/105 98/128/93 112/131/96 99/147/111
f 92/141/106 91/139/104 105/144/108 106/143/107
f 93/122/88 92/141/106 106/143/107 107/154/118
f 86/121/87 85/142/105 99/155/111 100/156/119
f 94/120/86 93/122/88 107/154/118 108/157/120
f 87/119/85 86/121/87 100/156/119 101/138/103
f 95/117/83 94/120/86 108/157/120 109/137/102
f 115/158/121 114/159/122 128/160/123 129/161/124
f 122/162/125 121/163/126 135/164/127 136/165/128
f 114/159/122 113/166/113 127/167/129 128/160/123
f 121/163/126 120/146/110 134/168/130 135/164/127
f 120/146/110 119/145/109 133/169/131 134/168/130
f 113/149/113 126/148/112 140/170/132 127/171/129
f 107/154/118 106/143/107 120/146/110 121/163/126
f 100/156/119 99/155/111 113/166/113 114/159/122
f 108/157/120 107/154/118 121/163/126 122/162/125
f 101/138/103 100/156/119 114/159/122 115/158/121
f 109/137/102 108/157/120 122/162/125 123/172/133
f 102/136/101 101/138/103 115/158/121 116/173/134
f 110/135/100 109/137/102 123/172/133 124/153/117
f 103/133/98 102/136/101 116/173/134 117/152/116
f 130/174/135 129/161/124 143/175/136 144/176/137
f 137/177/138 136/165/128 150/178/139 151/179/140
f 129/161/124 128/160/123 142/180/141 143/175/136
f 136/165/128 135/164/127 149/181/142 150/178/139
f 128/160/123 127/167/129 141/182/143 142/180/141
f 135/164/127 134/168/130 148/183/144 149/181/142
f 123/172/133 122/162/125 136/165/128 137/177/138
f 116/173/134 115/158/121 129/161/124 130/174/135
f 124/153/117 123/172/133 137/177/138 138/184/145
f 117/152/116 116/173/134 130/174/135 131/185/146
f 125/151/115 124/153/117 138/184/145 139/186/147
f 118/150/114 117/152/116 131/185/146 132/187/148
f 126/148/112 125/151/115 139/186/147 140/170/132
f 119/145/109 118/150/114 132/187/148 133/169/131
f 153/188/149 152/189/150 166/190/151 167/191/152
f 145/192/153 144/176/137 158/193/154 159/194/155
f 152/189/150 151/179/140 165/195/156 166/190/151
f 144/176/137 143/175/136 157/196/157 158/193/154
f 151/179/140 150/178/139 164/197/158 165/195/156
f 143/175/136 142/180/141 156/198/159 157/196/157
f 138/184/145 137/177/138 151/179/140 152/189/150
f 131/185/146 130/174/135 144/176/137 145/192/153
f 139/186/147 138/184/145 152/189/150 153/188/149
f 132/187/148 131/185/146 145/192/153 146/199/160
f 140/170/132 139/186/147 153/188/149 154/200/161
f 133/169/131 132/187/148 146/199/160 147/201/162
f 127/171/129 140/170/132 154/200/161 141/202/143
f 134/168/130 133/169/131 147/201/162 148/183/144
f 159/194/155 191/203/163 189/204/164 160/205/165
f 166/190/151 196/206/166 190/207/167 167/191/152
f 165/195/156 193/208/168 196/206/166 166/190/151
f 164/197/158 192/209/169 193/208/168 165/195/156
f 160/205/165 189/204/164 187/210/170 161/211/171
f 161/211/171 187/210/170 185/212/172 162/213/173
f 146/199/160 145/192/153 159/194/155 160/205/165
f 154/200/161 153/188/149 167/191/152 168/214/174
f 147/201/162 146/199/160 160/205/165 161/211/171
f 141/202/143 154/200/161 168/214/174 155/215/175
f 148/183/144 147/201/162 161/211/171 162/213/173
f 149/181/142 148/183/144 162/213/173 163/216/176
f 142/180/141 141/182/143 155/217/175 156/198/159
f 150/178/139 149/181/142 163/216/176 164/197/158
f 181/218/6 180/219/8 179/220/10 178/221/12
f 170/222/28 169/223/1 176/224/16 175/225/18
f 169/223/1 182/226/4 177/227/14 176/224/16
f 182/226/4 181/218/6 178/221/12 177/227/14
f 171/228/26 170/222/28 175/225/18 174/229/20
f 172/230/24 171/228/26 174/229/20 173/231/22
f 155/217/175 186/232/177 183/233/178 156/198/159
f 156/198/159 183/233/178 194/234/179 157/196/157
f 183/233/178 170/235/28 171/236/26 194/234/179
f 184/237/180 177/238/14 178/239/12 192/209/169
f 186/232/177 169/240/1 170/235/28 183/233/178
f 185/212/172 176/241/16 177/238/14 184/237/180
f 187/210/170 175/242/18 176/241/16 185/212/172
f 188/243/181 182/244/4 169/245/1 186/246/177
f 189/204/164 174/247/20 175/242/18 187/210/170
f 190/207/167 181/248/6 182/244/4 188/243/181
f 192/209/169 178/239/12 179/249/10 193/208/168
f 163/216/176 184/237/180 192/209/169 164/197/158
f 194/234/179 171/236/26 172/250/24 195/251/182
f 162/213/173 185/212/172 184/237/180 163/216/176
f 193/208/168 179/249/10 180/252/8 196/206/166
f 168/214/174 188/243/181 186/246/177 155/215/175
f 195/251/182 172/250/24 173/253/22 191/203/163
f 167/191/152 190/207/167 188/243/181 168/214/174
f 196/206/166 180/252/8 181/248/6 190/207/167
f 157/196/157 194/234/179 195/251/182 158/193/154
f 191/203/163 173/253/22 174/247/20 189/204/164
f 158/193/154 195/251/182 191/203/163 159/194/155
