# Blender v2.80 (sub 75) OBJ File: 'models3.blend'
# www.blender.org
mtllib candyrock.mtl
o Cylinder.004_Cylinder.005
v -0.000000 0.053809 -0.821588
v -0.000000 3.698960 -0.236749
v 0.445592 0.053809 -0.740225
v 0.128402 3.698960 -0.213303
v 0.802929 0.053809 -0.512251
v 0.231372 3.698960 -0.147610
v 1.001235 0.053809 -0.182820
v 0.288516 3.698960 -0.052681
v 1.001235 0.053809 0.182821
v 0.288516 3.698960 0.052682
v 0.802929 0.053809 0.512252
v 0.231372 3.698960 0.147611
v 0.445592 0.053809 0.740225
v 0.128402 3.698960 0.213303
v -0.000000 0.053809 0.821588
v -0.000000 3.698960 0.236749
v -0.445592 0.053809 0.740225
v -0.128402 3.698960 0.213303
v -0.802929 0.053809 0.512252
v -0.231372 3.698960 0.147611
v -1.001236 0.053809 0.182821
v -0.288516 3.698960 0.052682
v -1.001236 0.053809 -0.182820
v -0.288516 3.698960 -0.052681
v -0.802929 0.053809 -0.512252
v -0.231372 3.698960 -0.147610
v -0.445592 0.053809 -0.740225
v -0.128402 3.698960 -0.213303
v -0.000000 1.382191 -1.026829
v -0.000000 2.486833 -0.778489
v 0.422217 2.486833 -0.701394
v 0.556905 1.382191 -0.925141
v 0.760809 2.486833 -0.485380
v 1.003509 1.382191 -0.640217
v 0.948713 2.486833 -0.173230
v 1.251355 1.382191 -0.228491
v 0.948713 2.486833 0.173230
v 1.251355 1.382191 0.228491
v 0.760809 2.486833 0.485380
v 1.003509 1.382191 0.640218
v 0.422217 2.486833 0.701395
v 0.556905 1.382191 0.925141
v -0.000000 2.486833 0.778489
v -0.000000 1.382191 1.026829
v -0.422217 2.486833 0.701395
v -0.556906 1.382191 0.925141
v -0.760809 2.486833 0.485380
v -1.003509 1.382191 0.640218
v -0.948714 2.486833 0.173230
v -1.251356 1.382191 0.228491
v -0.948714 2.486833 -0.173230
v -1.251356 1.382191 -0.228491
v -0.760809 2.486833 -0.485380
v -1.003509 1.382191 -0.640218
v -0.422217 2.486833 -0.701395
v -0.556905 1.382191 -0.925141
v 0.593678 0.219214 -0.986229
v 1.069772 0.219214 -0.682492
v 1.333984 0.219214 -0.243578
v 1.333984 0.219214 0.243579
v 1.069772 0.219214 0.682492
v 0.593679 0.219214 0.986229
v -0.000000 0.219214 1.094632
v -0.593679 0.219214 0.986229
v -1.069772 0.219214 0.682492
v -1.333984 0.219214 0.243579
v -1.333984 0.219214 -0.243579
v -1.069772 0.219214 -0.682492
v -0.593678 0.219214 -0.986229
v -0.000000 0.219214 -1.094632
v -0.000000 3.549438 -0.378527
v 0.205296 3.549438 -0.341041
v 0.369931 3.549438 -0.236008
v 0.461296 3.549438 -0.084230
v 0.461296 3.549438 0.084230
v 0.369931 3.549438 0.236008
v 0.205296 3.549438 0.341042
v -0.000000 3.549438 0.378527
v -0.205296 3.549438 0.341042
v -0.369931 3.549438 0.236008
v -0.461296 3.549438 0.084230
v -0.461296 3.549438 -0.084230
v -0.369931 3.549438 -0.236008
v -0.205296 3.549438 -0.341041
v 0.066253 3.770862 -0.110061
v -0.000000 3.770862 -0.122158
v 0.119384 3.770862 -0.076164
v 0.148869 3.770862 -0.027183
v 0.148869 3.770862 0.027183
v 0.119384 3.770862 0.076165
v 0.066253 3.770862 0.110061
v -0.000000 3.770862 0.122158
v -0.066253 3.770862 0.110061
v -0.119384 3.770862 0.076165
v -0.148870 3.770862 0.027183
v -0.148870 3.770862 -0.027183
v -0.119384 3.770862 -0.076164
v -0.066253 3.770862 -0.110061
v 0.539730 0.136512 -0.896610
v 0.972561 0.136512 -0.620473
v 1.212764 0.136512 -0.221444
v 1.212764 0.136512 0.221444
v 0.972561 0.136512 0.620474
v 0.539731 0.136512 0.896610
v -0.000000 0.136512 0.995162
v -0.539731 0.136512 0.896610
v -0.972561 0.136512 0.620474
v -1.212764 0.136512 0.221445
v -1.212764 0.136512 -0.221444
v -0.972561 0.136512 -0.620473
v -0.539730 0.136512 -0.896610
v -0.000000 0.136512 -0.995162
v -0.000000 0.000004 -0.379157
v 0.205638 0.000004 -0.341609
v 0.370546 0.000004 -0.236401
v 0.462064 0.000004 -0.084370
v 0.462064 0.000004 0.084371
v 0.370546 0.000004 0.236401
v 0.205638 0.000004 0.341609
v -0.000000 0.000004 0.379157
v -0.205638 0.000004 0.341609
v -0.370547 0.000004 0.236401
v -0.462064 0.000004 0.084371
v -0.462064 0.000004 -0.084370
v -0.370547 0.000004 -0.236401
v -0.205638 0.000004 -0.341609
v -0.000000 1.934512 -0.918367
v 0.498080 1.934512 -0.827420
v 0.897510 1.934512 -0.572592
v 1.119176 1.934512 -0.204356
v 1.119176 1.934512 0.204356
v 0.897510 1.934512 0.572592
v 0.498080 1.934512 0.827420
v -0.000000 1.934512 0.918367
v -0.498080 1.934512 0.827420
v -0.897510 1.934512 0.572593
v -1.119177 1.934512 0.204356
v -1.119177 1.934512 -0.204356
v -0.897510 1.934512 -0.572592
v -0.498080 1.934512 -0.827420
v -0.000000 0.800703 -1.093314
v 0.592964 0.800703 -0.985042
v 1.068484 0.800703 -0.681670
v 1.332378 0.800703 -0.243285
v 1.332378 0.800703 0.243285
v 1.068484 0.800703 0.681671
v 0.592964 0.800703 0.985042
v 0.000000 0.800703 1.093315
v -0.592964 0.800703 0.985043
v -1.068484 0.800703 0.681671
v -1.332379 0.800703 0.243286
v -1.332379 0.800703 -0.243285
v -1.068484 0.800703 -0.681670
v -0.592964 0.800703 -0.985042
v 0.328298 3.018136 -0.545374
v 0.591572 3.018136 -0.377411
v 0.737678 3.018136 -0.134696
v 0.737678 3.018136 0.134696
v 0.591572 3.018136 0.377411
v 0.328298 3.018136 0.545374
v -0.000000 3.018136 0.605320
v -0.328298 3.018136 0.545374
v -0.591572 3.018136 0.377411
v -0.737679 3.018136 0.134696
v -0.737679 3.018136 -0.134696
v -0.591572 3.018136 -0.377411
v -0.328298 3.018136 -0.545374
v -0.000000 3.018136 -0.605320
vt 1.000000 0.980311
vt 1.000000 1.000000
vt 0.928571 1.000000
vt 0.928571 0.980311
vt 0.857143 1.000000
vt 0.857143 0.980311
vt 0.785714 1.000000
vt 0.785714 0.980311
vt 0.714286 1.000000
vt 0.714286 0.980311
vt 0.642857 1.000000
vt 0.642857 0.980311
vt 0.571428 1.000000
vt 0.571428 0.980311
vt 0.500000 1.000000
vt 0.500000 0.980311
vt 0.428571 1.000000
vt 0.428571 0.980311
vt 0.357143 1.000000
vt 0.357143 0.980311
vt 0.285714 1.000000
vt 0.285714 0.980311
vt 0.214286 1.000000
vt 0.214286 0.980311
vt 0.142857 1.000000
vt 0.142857 0.980311
vt 0.071428 1.000000
vt 0.142857 1.000000
vt 0.071428 1.000000
vt 0.071428 0.980311
vt -0.000000 1.000000
vt -0.000000 0.980311
vt 0.857143 0.500000
vt 0.785714 0.500000
vt 0.785714 0.500000
vt 0.857143 0.500000
vt 0.071428 0.596663
vt 0.071428 0.666667
vt -0.000000 0.666667
vt -0.000000 0.596663
vt 0.071428 0.750000
vt 0.071428 0.833333
vt -0.000000 0.833333
vt -0.000000 0.750000
vt 0.142857 0.596663
vt 0.142857 0.666667
vt 0.142857 0.750000
vt 0.142857 0.833333
vt 0.214286 0.596663
vt 0.214286 0.666667
vt 0.214286 0.750000
vt 0.214286 0.833333
vt 0.285714 0.596663
vt 0.285714 0.666667
vt 0.285714 0.750000
vt 0.285714 0.833333
vt 0.357143 0.596663
vt 0.357143 0.666667
vt 0.357143 0.750000
vt 0.357143 0.833333
vt 0.428571 0.596663
vt 0.428571 0.666667
vt 0.428571 0.750000
vt 0.428571 0.833333
vt 0.500000 0.596663
vt 0.500000 0.666667
vt 0.500000 0.750000
vt 0.500000 0.833333
vt 0.571428 0.596663
vt 0.571428 0.666667
vt 0.571428 0.750000
vt 0.571428 0.833333
vt 0.642857 0.596663
vt 0.642857 0.666667
vt 0.642857 0.750000
vt 0.642857 0.833333
vt 0.714286 0.596663
vt 0.714286 0.666667
vt 0.714286 0.750000
vt 0.714286 0.833333
vt 0.785714 0.596663
vt 0.785714 0.666667
vt 0.785714 0.750000
vt 0.785714 0.833333
vt 0.857143 0.596663
vt 0.857143 0.666667
vt 0.857143 0.750000
vt 0.857143 0.833333
vt 0.928571 0.596663
vt 0.928571 0.666667
vt 0.928571 0.750000
vt 0.928571 0.833333
vt 1.000000 0.596663
vt 1.000000 0.666667
vt 1.000000 0.750000
vt 1.000000 0.833333
vt 1.000000 0.513330
vt 1.000000 0.526660
vt 0.928571 0.526660
vt 0.928571 0.513330
vt 0.857143 0.526660
vt 0.857143 0.513330
vt 0.785714 0.526660
vt 0.785714 0.513330
vt 0.714286 0.526660
vt 0.714286 0.513330
vt 0.642857 0.526660
vt 0.642857 0.513330
vt 0.571428 0.526660
vt 0.571428 0.513330
vt 0.500000 0.526660
vt 0.500000 0.513330
vt 0.428571 0.526660
vt 0.428571 0.513330
vt 0.357143 0.526660
vt 0.357143 0.513330
vt 0.285714 0.526660
vt 0.285714 0.513330
vt 0.214286 0.526660
vt 0.214286 0.513330
vt 0.142857 0.526660
vt 0.142857 0.513330
vt 0.071428 0.526660
vt 0.071428 0.513330
vt -0.000000 0.526660
vt -0.000000 0.513330
vt 0.071428 0.906822
vt -0.000000 0.906822
vt 0.142857 0.906822
vt 0.214286 0.906822
vt 0.285714 0.906822
vt 0.357143 0.906822
vt 0.428571 0.906822
vt 0.500000 0.906822
vt 0.571428 0.906822
vt 0.642857 0.906822
vt 0.714286 0.906822
vt 0.785714 0.906822
vt 0.857143 0.906822
vt 0.928572 0.906822
vt 1.000000 0.906822
vt 1.000000 1.000000
vt 0.928571 1.000000
vt 0.500000 1.000000
vt 0.428571 1.000000
vt 0.857143 1.000000
vt 0.785714 1.000000
vt 0.357143 1.000000
vt 0.285714 1.000000
vt 0.714286 1.000000
vt 0.642857 1.000000
vt 0.062360 0.399638
vt 0.016017 0.303405
vt 0.016017 0.196595
vt 0.062360 0.100362
vt 0.354132 0.466233
vt 0.250000 0.490000
vt 0.250000 0.010000
vt 0.354132 0.033767
vt 0.437640 0.399638
vt 0.437640 0.100362
vt 0.483983 0.303405
vt 0.483983 0.196595
vt 0.145868 0.466233
vt 0.145868 0.033767
vt 0.571428 1.000000
vt 0.214286 1.000000
vt -0.000000 1.000000
vt 0.071428 0.500000
vt -0.000000 0.500000
vt 0.142857 0.500000
vt 0.214286 0.500000
vt 0.285714 0.500000
vt 0.357143 0.500000
vt 0.428571 0.500000
vt 0.500000 0.500000
vt 0.571428 0.500000
vt 0.642857 0.500000
vt 0.714286 0.500000
vt 0.928571 0.500000
vt 1.000000 0.500000
vt 0.750000 0.490000
vt 0.854132 0.466233
vt 0.937640 0.399638
vt 0.983983 0.303405
vt 0.983983 0.196595
vt 0.937640 0.100362
vt 0.854132 0.033767
vt 0.750000 0.010000
vt 0.645868 0.033767
vt 0.562360 0.100362
vt 0.516017 0.196595
vt 0.516017 0.303405
vt 0.562360 0.399638
vt 0.645868 0.466233
vt 0.428571 0.500000
vt 0.500000 0.500000
vt 0.928571 0.500000
vt 1.000000 0.500000
vt 0.071428 0.500000
vt 0.142857 0.500000
vt 0.571428 0.500000
vt 0.642857 0.500000
vt 0.214286 0.500000
vt 0.285714 0.500000
vt 0.714286 0.500000
vt 0.357143 0.500000
vt -0.000000 0.500000
vn 0.1314 0.6821 -0.7194
vn 0.3809 0.7060 -0.5971
vn 0.5766 0.7396 -0.3471
vn 0.6544 0.7562 0.0000
vn 0.5766 0.7396 0.3471
vn 0.3809 0.7060 0.5971
vn 0.1314 0.6821 0.7194
vn -0.1314 0.6821 0.7194
vn -0.3809 0.7060 0.5971
vn -0.5766 0.7396 0.3471
vn -0.6544 0.7562 0.0000
vn -0.5766 0.7396 -0.3471
vn -0.2757 0.8587 -0.4321
vn -0.3809 0.7060 -0.5971
vn -0.1314 0.6821 -0.7194
vn 0.0894 -0.9945 -0.0538
vn -0.1785 0.1118 -0.9776
vn -0.1743 0.2417 -0.9546
vn -0.5340 0.1193 -0.8370
vn -0.5197 0.2573 -0.8147
vn -0.8493 0.1313 -0.5113
vn -0.8221 0.2816 -0.4949
vn -0.9904 0.1380 0.0000
vn -0.9555 0.2949 0.0000
vn -0.8493 0.1313 0.5113
vn -0.8221 0.2816 0.4949
vn -0.5340 0.1193 0.8370
vn -0.5197 0.2573 0.8147
vn -0.1785 0.1118 0.9776
vn -0.1743 0.2417 0.9546
vn 0.1785 0.1118 0.9776
vn 0.1743 0.2417 0.9546
vn 0.5340 0.1193 0.8370
vn 0.5197 0.2573 0.8147
vn 0.8493 0.1314 0.5113
vn 0.8221 0.2816 0.4949
vn 0.9904 0.1380 0.0000
vn 0.9555 0.2949 0.0000
vn 0.8493 0.1314 -0.5113
vn 0.8221 0.2816 -0.4949
vn 0.5340 0.1193 -0.8370
vn 0.5197 0.2573 -0.8147
vn 0.1785 0.1118 -0.9776
vn 0.1743 0.2417 -0.9546
vn 0.1159 -0.7638 -0.6350
vn 0.3336 -0.7843 -0.5230
vn 0.4994 -0.8125 -0.3006
vn 0.5636 -0.8261 0.0000
vn 0.4994 -0.8125 0.3006
vn 0.3336 -0.7843 0.5230
vn 0.1159 -0.7638 0.6350
vn -0.1159 -0.7638 0.6350
vn -0.3336 -0.7843 0.5230
vn -0.4994 -0.8125 0.3006
vn -0.5636 -0.8261 0.0000
vn -0.4994 -0.8125 -0.3006
vn -0.3336 -0.7843 -0.5230
vn -0.1159 -0.7638 -0.6350
vn -0.1656 0.3872 -0.9070
vn -0.4907 0.4094 -0.7692
vn -0.7679 0.4434 -0.4623
vn -0.8871 0.4615 0.0000
vn -0.7679 0.4434 0.4623
vn -0.4907 0.4094 0.7692
vn -0.1656 0.3872 0.9070
vn 0.1656 0.3872 0.9070
vn 0.4907 0.4094 0.7692
vn 0.7679 0.4434 0.4623
vn 0.8871 0.4615 0.0000
vn 0.7679 0.4434 -0.4623
vn 0.4907 0.4094 -0.7692
vn 0.1656 0.3872 -0.9070
vn 0.0966 0.8431 -0.5290
vn -0.0966 0.8431 0.5290
vn 0.4079 0.8794 -0.2456
vn -0.4079 0.8794 0.2456
vn 0.4079 0.8794 0.2456
vn 0.0000 1.0000 0.0000
vn 0.2757 0.8587 0.4321
vn -0.4578 0.8891 0.0000
vn 0.4578 0.8891 0.0000
vn -0.2757 0.8587 0.4321
vn -0.0966 0.8431 -0.5290
vn 0.2757 0.8587 -0.4321
vn 0.0966 0.8431 0.5290
vn -0.4079 0.8794 -0.2456
vn -0.0783 -0.9000 -0.4288
vn -0.2220 -0.9108 -0.3480
vn -0.3258 -0.9249 -0.1961
vn -0.3641 -0.9313 0.0000
vn -0.3258 -0.9249 0.1961
vn -0.2220 -0.9108 0.3480
vn -0.0783 -0.9000 0.4288
vn 0.0783 -0.9000 0.4288
vn 0.2220 -0.9108 0.3480
vn 0.3258 -0.9249 0.1961
vn 0.3641 -0.9313 0.0000
vn 0.3258 -0.9249 -0.1961
vn 0.2220 -0.9108 -0.3480
vn 0.0783 -0.9000 -0.4288
vn 0.0000 -1.0000 0.0000
vn -0.0220 -0.9924 0.1207
vn 0.0220 -0.9924 -0.1207
vn -0.0618 -0.9934 -0.0969
vn 0.0618 -0.9934 0.0969
vn -0.0993 -0.9951 0.0000
vn 0.0993 -0.9951 0.0000
vn -0.0618 -0.9934 0.0969
vn -0.0220 -0.9924 -0.1207
vn 0.0618 -0.9934 -0.0969
vn 0.0220 -0.9924 0.1207
vn -0.0894 -0.9945 -0.0538
vn 0.0894 -0.9945 0.0538
vn -0.0894 -0.9945 0.0538
vn 0.1764 0.1897 -0.9659
vn 0.5267 0.2022 -0.8256
vn 0.8354 0.2219 -0.5029
vn 0.9725 0.2327 0.0000
vn 0.8354 0.2219 0.5029
vn 0.5267 0.2022 0.8256
vn 0.1764 0.1897 0.9659
vn -0.1764 0.1897 0.9659
vn -0.5267 0.2022 0.8256
vn -0.8354 0.2219 0.5029
vn -0.9725 0.2327 0.0000
vn -0.8354 0.2219 -0.5029
vn -0.5267 0.2022 -0.8256
vn -0.1764 0.1897 -0.9659
vn 0.1796 0.0022 -0.9837
vn 0.5378 0.0024 -0.8430
vn 0.8567 0.0026 -0.5157
vn 1.0000 0.0028 0.0000
vn 0.8567 0.0026 0.5157
vn 0.5378 0.0024 0.8430
vn 0.1796 0.0022 0.9837
vn -0.1796 0.0022 0.9837
vn -0.5378 0.0024 0.8430
vn -0.8567 0.0026 0.5157
vn -1.0000 0.0028 0.0000
vn -0.8567 0.0026 -0.5157
vn -0.5378 0.0024 -0.8430
vn -0.1796 0.0022 -0.9837
vn 0.1710 0.3053 -0.9368
vn 0.5088 0.3241 -0.7975
vn 0.8015 0.3533 -0.4825
vn 0.9294 0.3691 0.0000
vn 0.8015 0.3533 0.4825
vn 0.5088 0.3241 0.7975
vn 0.1710 0.3053 0.9368
vn -0.1710 0.3053 0.9368
vn -0.5088 0.3241 0.7975
vn -0.8015 0.3533 0.4825
vn -0.9294 0.3691 0.0000
vn -0.8015 0.3533 -0.4825
vn -0.5088 0.3241 -0.7975
vn -0.1710 0.3053 -0.9368
usemtl None
s off
f 71/1/1 2/2/1 4/3/1 72/4/1
f 72/4/2 4/3/2 6/5/2 73/6/2
f 73/6/3 6/5/3 8/7/3 74/8/3
f 74/8/4 8/7/4 10/9/4 75/10/4
f 75/10/5 10/9/5 12/11/5 76/12/5
f 76/12/6 12/11/6 14/13/6 77/14/6
f 77/14/7 14/13/7 16/15/7 78/16/7
f 78/16/8 16/15/8 18/17/8 79/18/8
f 79/18/9 18/17/9 20/19/9 80/20/9
f 80/20/10 20/19/10 22/21/10 81/22/10
f 81/22/11 22/21/11 24/23/11 82/24/11
f 82/24/12 24/23/12 26/25/12 83/26/12
f 28/27/13 26/25/13 97/28/13 98/29/13
f 83/26/14 26/25/14 28/27/14 84/30/14
f 84/30/15 28/27/15 2/31/15 71/32/15
f 5/33/16 7/34/16 116/35/16 115/36/16
f 154/37/17 56/38/17 29/39/17 141/40/17
f 140/41/18 55/42/18 30/43/18 127/44/18
f 153/45/19 54/46/19 56/38/19 154/37/19
f 139/47/20 53/48/20 55/42/20 140/41/20
f 152/49/21 52/50/21 54/46/21 153/45/21
f 138/51/22 51/52/22 53/48/22 139/47/22
f 151/53/23 50/54/23 52/50/23 152/49/23
f 137/55/24 49/56/24 51/52/24 138/51/24
f 150/57/25 48/58/25 50/54/25 151/53/25
f 136/59/26 47/60/26 49/56/26 137/55/26
f 149/61/27 46/62/27 48/58/27 150/57/27
f 135/63/28 45/64/28 47/60/28 136/59/28
f 148/65/29 44/66/29 46/62/29 149/61/29
f 134/67/30 43/68/30 45/64/30 135/63/30
f 147/69/31 42/70/31 44/66/31 148/65/31
f 133/71/32 41/72/32 43/68/32 134/67/32
f 146/73/33 40/74/33 42/70/33 147/69/33
f 132/75/34 39/76/34 41/72/34 133/71/34
f 145/77/35 38/78/35 40/74/35 146/73/35
f 131/79/36 37/80/36 39/76/36 132/75/36
f 144/81/37 36/82/37 38/78/37 145/77/37
f 130/83/38 35/84/38 37/80/38 131/79/38
f 143/85/39 34/86/39 36/82/39 144/81/39
f 129/87/40 33/88/40 35/84/40 130/83/40
f 142/89/41 32/90/41 34/86/41 143/85/41
f 128/91/42 31/92/42 33/88/42 129/87/42
f 141/93/43 29/94/43 32/90/43 142/89/43
f 127/95/44 30/96/44 31/92/44 128/91/44
f 112/97/45 70/98/45 57/99/45 99/100/45
f 99/100/46 57/99/46 58/101/46 100/102/46
f 100/102/47 58/101/47 59/103/47 101/104/47
f 101/104/48 59/103/48 60/105/48 102/106/48
f 102/106/49 60/105/49 61/107/49 103/108/49
f 103/108/50 61/107/50 62/109/50 104/110/50
f 104/110/51 62/109/51 63/111/51 105/112/51
f 105/112/52 63/111/52 64/113/52 106/114/52
f 106/114/53 64/113/53 65/115/53 107/116/53
f 107/116/54 65/115/54 66/117/54 108/118/54
f 108/118/55 66/117/55 67/119/55 109/120/55
f 109/120/56 67/119/56 68/121/56 110/122/56
f 110/122/57 68/121/57 69/123/57 111/124/57
f 111/124/58 69/123/58 70/125/58 112/126/58
f 167/127/59 84/30/59 71/32/59 168/128/59
f 166/129/60 83/26/60 84/30/60 167/127/60
f 165/130/61 82/24/61 83/26/61 166/129/61
f 164/131/62 81/22/62 82/24/62 165/130/62
f 163/132/63 80/20/63 81/22/63 164/131/63
f 162/133/64 79/18/64 80/20/64 163/132/64
f 161/134/65 78/16/65 79/18/65 162/133/65
f 160/135/66 77/14/66 78/16/66 161/134/66
f 159/136/67 76/12/67 77/14/67 160/135/67
f 158/137/68 75/10/68 76/12/68 159/136/68
f 157/138/69 74/8/69 75/10/69 158/137/69
f 156/139/70 73/6/70 74/8/70 157/138/70
f 155/140/71 72/4/71 73/6/71 156/139/71
f 168/141/72 71/1/72 72/4/72 155/140/72
f 4/3/73 2/2/73 86/142/73 85/143/73
f 18/17/74 16/15/74 92/144/74 93/145/74
f 8/7/75 6/5/75 87/146/75 88/147/75
f 22/21/76 20/19/76 94/148/76 95/149/76
f 12/11/77 10/9/77 89/150/77 90/151/77
f 97/152/78 96/153/78 95/154/78 94/155/78
f 85/156/78 86/157/78 92/158/78 91/159/78
f 87/160/78 85/156/78 91/159/78 90/161/78
f 88/162/78 87/160/78 90/161/78 89/163/78
f 86/157/78 98/164/78 93/165/78 92/158/78
f 98/164/78 97/152/78 94/155/78 93/165/78
f 14/13/79 12/11/79 90/151/79 91/166/79
f 24/23/80 22/21/80 95/149/80 96/167/80
f 10/9/81 8/7/81 88/147/81 89/150/81
f 20/19/82 18/17/82 93/145/82 94/148/82
f 2/31/83 28/27/83 98/29/83 86/168/83
f 6/5/84 4/3/84 85/143/84 87/146/84
f 16/15/85 14/13/85 91/166/85 92/144/85
f 26/25/86 24/23/86 96/167/86 97/28/86
f 27/169/87 111/124/87 112/126/87 1/170/87
f 25/171/88 110/122/88 111/124/88 27/169/88
f 23/172/89 109/120/89 110/122/89 25/171/89
f 21/173/90 108/118/90 109/120/90 23/172/90
f 19/174/91 107/116/91 108/118/91 21/173/91
f 17/175/92 106/114/92 107/116/92 19/174/92
f 15/176/93 105/112/93 106/114/93 17/175/93
f 13/177/94 104/110/94 105/112/94 15/176/94
f 11/178/95 103/108/95 104/110/95 13/177/95
f 9/179/96 102/106/96 103/108/96 11/178/96
f 7/34/97 101/104/97 102/106/97 9/179/97
f 5/33/98 100/102/98 101/104/98 7/34/98
f 3/180/99 99/100/99 100/102/99 5/33/99
f 1/181/100 112/97/100 99/100/100 3/180/100
f 113/182/101 114/183/101 115/184/101 116/185/101 117/186/101 118/187/101 119/188/101 120/189/101 121/190/101 122/191/101 123/192/101 124/193/101 125/194/101 126/195/101
f 15/176/102 17/175/102 121/196/102 120/197/102
f 1/181/103 3/180/103 114/198/103 113/199/103
f 25/171/104 27/169/104 126/200/104 125/201/104
f 11/178/105 13/177/105 119/202/105 118/203/105
f 21/173/106 23/172/106 124/204/106 123/205/106
f 7/34/107 9/179/107 117/206/107 116/35/107
f 17/175/108 19/174/108 122/207/108 121/196/108
f 27/169/109 1/170/109 113/208/109 126/200/109
f 3/180/110 5/33/110 115/36/110 114/198/110
f 13/177/111 15/176/111 120/197/111 119/202/111
f 23/172/112 25/171/112 125/201/112 124/204/112
f 9/179/113 11/178/113 118/203/113 117/206/113
f 19/174/114 21/173/114 123/205/114 122/207/114
f 29/94/115 127/95/115 128/91/115 32/90/115
f 32/90/116 128/91/116 129/87/116 34/86/116
f 34/86/117 129/87/117 130/83/117 36/82/117
f 36/82/118 130/83/118 131/79/118 38/78/118
f 38/78/119 131/79/119 132/75/119 40/74/119
f 40/74/120 132/75/120 133/71/120 42/70/120
f 42/70/121 133/71/121 134/67/121 44/66/121
f 44/66/122 134/67/122 135/63/122 46/62/122
f 46/62/123 135/63/123 136/59/123 48/58/123
f 48/58/124 136/59/124 137/55/124 50/54/124
f 50/54/125 137/55/125 138/51/125 52/50/125
f 52/50/126 138/51/126 139/47/126 54/46/126
f 54/46/127 139/47/127 140/41/127 56/38/127
f 56/38/128 140/41/128 127/44/128 29/39/128
f 70/98/129 141/93/129 142/89/129 57/99/129
f 57/99/130 142/89/130 143/85/130 58/101/130
f 58/101/131 143/85/131 144/81/131 59/103/131
f 59/103/132 144/81/132 145/77/132 60/105/132
f 60/105/133 145/77/133 146/73/133 61/107/133
f 61/107/134 146/73/134 147/69/134 62/109/134
f 62/109/135 147/69/135 148/65/135 63/111/135
f 63/111/136 148/65/136 149/61/136 64/113/136
f 64/113/137 149/61/137 150/57/137 65/115/137
f 65/115/138 150/57/138 151/53/138 66/117/138
f 66/117/139 151/53/139 152/49/139 67/119/139
f 67/119/140 152/49/140 153/45/140 68/121/140
f 68/121/141 153/45/141 154/37/141 69/123/141
f 69/123/142 154/37/142 141/40/142 70/125/142
f 30/96/143 168/141/143 155/140/143 31/92/143
f 31/92/144 155/140/144 156/139/144 33/88/144
f 33/88/145 156/139/145 157/138/145 35/84/145
f 35/84/146 157/138/146 158/137/146 37/80/146
f 37/80/147 158/137/147 159/136/147 39/76/147
f 39/76/148 159/136/148 160/135/148 41/72/148
f 41/72/149 160/135/149 161/134/149 43/68/149
f 43/68/150 161/134/150 162/133/150 45/64/150
f 45/64/151 162/133/151 163/132/151 47/60/151
f 47/60/152 163/132/152 164/131/152 49/56/152
f 49/56/153 164/131/153 165/130/153 51/52/153
f 51/52/154 165/130/154 166/129/154 53/48/154
f 53/48/155 166/129/155 167/127/155 55/42/155
f 55/42/156 167/127/156 168/128/156 30/43/156
