# Blender v2.80 (sub 75) OBJ File: ''
# www.blender.org
mtllib CandyCorn.mtl
o Cylinder.004_Cylinder.005
v 0.288516 3.698960 0.052683
v 0.461296 3.549438 0.084231
v 0.231372 3.698960 0.147612
v 0.369931 3.549438 0.236009
v 0.128402 3.698960 0.213304
v 0.205296 3.549438 0.341043
v 0.000000 3.698960 0.236750
v 0.000000 3.549438 0.378528
v -0.128402 3.698960 0.213304
v -0.205296 3.549438 0.341043
v -0.231372 3.698960 0.147612
v -0.369931 3.549438 0.236009
v -0.288516 3.698960 0.052683
v -0.461296 3.549438 0.084231
v -1.332379 0.800703 0.243286
v -1.251356 1.382191 0.228491
v -1.119177 1.934512 0.204356
v -0.948714 2.486833 0.173230
v -1.068484 0.800703 0.681671
v -1.003509 1.382191 0.640218
v -0.897510 1.934512 0.572593
v -0.760809 2.486833 0.485380
v -0.592964 0.800703 0.985043
v -0.556906 1.382191 0.925141
v -0.498080 1.934512 0.827420
v -0.422217 2.486833 0.701395
v 0.000000 0.800703 1.093315
v 0.000000 1.382191 1.026829
v 0.000000 1.934512 0.918367
v 0.000000 2.486833 0.778489
v 0.592964 0.800703 0.985042
v 0.556905 1.382191 0.925141
v 0.498080 1.934512 0.827420
v 0.422217 2.486833 0.701395
v 1.068484 0.800703 0.681671
v 1.003509 1.382191 0.640218
v 0.897510 1.934512 0.572592
v 0.760809 2.486833 0.485380
v 1.332378 0.800703 0.243285
v 1.251355 1.382191 0.228491
v 1.119176 1.934512 0.204356
v 0.948713 2.486833 0.173230
v 1.333984 0.219214 0.243579
v 1.212764 0.136512 0.221444
v 1.069772 0.219214 0.682492
v 0.972561 0.136512 0.620474
v 0.593679 0.219214 0.986229
v 0.539731 0.136512 0.896610
v 0.000000 0.219214 1.094632
v 0.000000 0.136512 0.995162
v -0.593679 0.219214 0.986229
v -0.539731 0.136512 0.896610
v -1.069772 0.219214 0.682492
v -0.972561 0.136512 0.620474
v -1.333984 0.219214 0.243579
v -1.212764 0.136512 0.221445
v -0.737679 3.018136 0.134696
v -0.591572 3.018136 0.377411
v -0.328298 3.018136 0.545374
v 0.000000 3.018136 0.605320
v 0.328298 3.018136 0.545374
v 0.591572 3.018136 0.377411
v 0.737678 3.018136 0.134696
v 0.000000 3.770862 0.122159
v -0.066253 3.770862 0.110062
v 0.148869 3.770862 -0.027182
v -0.119384 3.770862 0.076166
v -0.148870 3.770862 0.027184
v 0.148869 3.770862 0.027184
v 0.119384 3.770862 0.076166
v -0.148870 3.770862 -0.027182
v 0.066253 3.770862 0.110062
v -1.001236 0.053809 0.182821
v -0.802929 0.053809 0.512252
v -0.445592 0.053809 0.740225
v 0.000000 0.053809 0.821588
v 0.445592 0.053809 0.740225
v 0.802929 0.053809 0.512252
v 1.001235 0.053809 0.182821
v 0.462064 0.000004 0.084371
v 0.370546 0.000004 0.236401
v 0.205638 0.000004 0.341609
v 0.000000 0.000004 0.379157
v -0.205638 0.000004 0.341609
v -0.370547 0.000004 0.236401
v -0.462064 0.000004 0.084371
v 0.288516 3.698960 -0.052681
v 0.461296 3.549438 -0.084229
v 0.231372 3.698960 -0.147610
v 0.369931 3.549438 -0.236007
v 0.128402 3.698960 -0.213302
v 0.205296 3.549438 -0.341041
v 0.000000 3.698960 -0.236748
v 0.000000 3.549438 -0.378526
v -0.128402 3.698960 -0.213302
v -0.205296 3.549438 -0.341041
v -0.231372 3.698960 -0.147610
v -0.369931 3.549438 -0.236007
v -0.288516 3.698960 -0.052681
v -0.461296 3.549438 -0.084229
v -1.332379 0.800703 -0.243286
v -1.251356 1.382191 -0.228491
v -1.119177 1.934512 -0.204356
v -0.948714 2.486833 -0.173230
v -1.068484 0.800703 -0.681671
v -1.003509 1.382191 -0.640218
v -0.897510 1.934512 -0.572593
v -0.760809 2.486833 -0.485380
v -0.592964 0.800703 -0.985043
v -0.556906 1.382191 -0.925141
v -0.498080 1.934512 -0.827420
v -0.422217 2.486833 -0.701395
v 0.000000 0.800703 -1.093315
v 0.000000 1.382191 -1.026829
v 0.000000 1.934512 -0.918367
v 0.000000 2.486833 -0.778489
v 0.592964 0.800703 -0.985042
v 0.556905 1.382191 -0.925141
v 0.498080 1.934512 -0.827420
v 0.422217 2.486833 -0.701395
v 1.068484 0.800703 -0.681671
v 1.003509 1.382191 -0.640218
v 0.897510 1.934512 -0.572592
v 0.760809 2.486833 -0.485380
v 1.332378 0.800703 -0.243285
v 1.251355 1.382191 -0.228491
v 1.119176 1.934512 -0.204356
v 0.948713 2.486833 -0.173230
v 1.333984 0.219214 -0.243579
v 1.212764 0.136512 -0.221444
v 1.069772 0.219214 -0.682492
v 0.972561 0.136512 -0.620474
v 0.593679 0.219214 -0.986229
v 0.539731 0.136512 -0.896610
v 0.000000 0.219214 -1.094632
v 0.000000 0.136512 -0.995162
v -0.593679 0.219214 -0.986229
v -0.539731 0.136512 -0.896610
v -1.069772 0.219214 -0.682492
v -0.972561 0.136512 -0.620474
v -1.333984 0.219214 -0.243579
v -1.212764 0.136512 -0.221445
v -0.737679 3.018136 -0.134696
v -0.591572 3.018136 -0.377411
v -0.328298 3.018136 -0.545373
v 0.000000 3.018136 -0.605319
v 0.328298 3.018136 -0.545373
v 0.591572 3.018136 -0.377411
v 0.737678 3.018136 -0.134696
v 0.000000 3.770862 -0.122157
v -0.066253 3.770862 -0.110060
v 0.148869 3.770862 0.027184
v -0.119384 3.770862 -0.076164
v -0.148870 3.770862 -0.027182
v 0.148869 3.770862 -0.027182
v 0.119384 3.770862 -0.076164
v -0.148870 3.770862 0.027184
v 0.066253 3.770862 -0.110060
v -1.001236 0.053809 -0.182821
v -0.802929 0.053809 -0.512252
v -0.445592 0.053809 -0.740225
v 0.000000 0.053809 -0.821588
v 0.445592 0.053809 -0.740225
v 0.802929 0.053809 -0.512252
v 1.001235 0.053809 -0.182821
v 0.462064 0.000004 -0.084371
v 0.370546 0.000004 -0.236401
v 0.205638 0.000004 -0.341609
v 0.000000 0.000004 -0.379157
v -0.205638 0.000004 -0.341609
v -0.370547 0.000004 -0.236401
v -0.462064 0.000004 -0.084371
v 0.461296 3.549438 0.000001
v 0.288516 3.698960 0.000001
v -0.461296 3.549438 0.000001
v -0.288516 3.698960 0.000001
v -1.332379 0.800703 0.000000
v -1.251356 1.382191 0.000000
v -1.119177 1.934512 0.000000
v -0.948714 2.486833 0.000000
v 1.332378 0.800703 0.000000
v 1.251355 1.382191 0.000000
v 1.119176 1.934512 0.000000
v 0.948713 2.486833 0.000000
v 1.212764 0.136512 0.000000
v 1.333984 0.219214 0.000000
v -1.212764 0.136512 0.000000
v -1.333984 0.219214 0.000000
v -0.737679 3.018136 0.000000
v 0.737678 3.018136 0.000000
v -0.119384 3.770862 0.000001
v -0.148870 3.770862 0.000001
v 0.066253 3.770862 0.000001
v 0.000000 3.770862 0.000001
v 0.119384 3.770862 0.000001
v 0.148869 3.770862 0.000001
v -0.066253 3.770862 0.000001
v -1.001236 0.053809 0.000000
v 1.001235 0.053809 0.000000
v 0.462064 0.000004 0.000000
v -0.462064 0.000004 0.000000
vt 0.600023 0.944212
vt 0.558191 0.974839
vt 0.552285 0.964452
vt 0.588250 0.931233
vt 0.532870 0.950090
vt 0.557559 0.913682
vt 0.509013 0.941877
vt 0.521814 0.903468
vt 0.482933 0.939315
vt 0.482977 0.900093
vt 0.456851 0.941810
vt 0.444142 0.903383
vt 0.432983 0.949956
vt 0.408397 0.913510
vt 0.413542 0.964257
vt 0.377693 0.930971
vt 0.324402 0.222630
vt 0.313153 0.309256
vt 0.237821 0.296526
vt 0.250450 0.205748
vt 0.294486 0.496517
vt 0.321302 0.605188
vt 0.252061 0.622470
vt 0.213531 0.516321
vt 0.401795 0.235361
vt 0.395534 0.320051
vt 0.385352 0.484949
vt 0.399287 0.595190
vt 0.483227 0.240169
vt 0.483227 0.324350
vt 0.483203 0.481102
vt 0.483203 0.591899
vt 0.564658 0.235361
vt 0.570919 0.320051
vt 0.581055 0.484949
vt 0.567120 0.595190
vt 0.642051 0.222630
vt 0.653301 0.309256
vt 0.671921 0.496517
vt 0.645105 0.605188
vt 0.716003 0.205748
vt 0.728632 0.296526
vt 0.752876 0.516321
vt 0.714346 0.622470
vt 0.753965 0.197471
vt 0.765444 0.292059
vt 0.789849 0.531232
vt 0.745658 0.635714
vt 0.707539 0.075299
vt 0.726092 0.102770
vt 0.692113 0.121671
vt 0.678872 0.102340
vt 0.624283 0.146270
vt 0.615943 0.131026
vt 0.555482 0.161614
vt 0.551058 0.146705
vt 0.483227 0.166747
vt 0.483227 0.151575
vt 0.410971 0.161614
vt 0.415395 0.146705
vt 0.342170 0.146270
vt 0.350511 0.131026
vt 0.274340 0.121671
vt 0.287581 0.102340
vt 0.359342 0.808659
vt 0.307808 0.832055
vt 0.418691 0.794435
vt 0.483058 0.789543
vt 0.547440 0.794510
vt 0.606831 0.808821
vt 0.658423 0.832332
vt 0.680215 0.849091
vt 0.482897 0.966926
vt 0.467796 0.968828
vt 0.454449 0.974709
vt 0.444600 0.984314
vt 0.521152 0.984431
vt 0.511328 0.974793
vt 0.450856 0.993239
vt 0.442461 0.990890
vt 0.500434 0.995449
vt 0.482854 0.996254
vt 0.497995 0.968872
vt 0.514866 0.993340
vt 0.523273 0.991016
vt 0.465278 0.995393
vt 0.407611 0.974620
vt 0.366388 0.106505
vt 0.314551 0.073070
vt 0.423616 0.123059
vt 0.483227 0.127764
vt 0.542837 0.123059
vt 0.600065 0.106505
vt 0.651902 0.073070
vt 0.669371 0.044493
vt 0.396219 0.004983
vt 0.570234 0.004983
vt 0.568956 0.022144
vt 0.547587 0.047159
vt 0.517300 0.062494
vt 0.483227 0.068196
vt 0.449153 0.062494
vt 0.418866 0.047159
vt 0.397497 0.022144
vt 0.829793 0.427122
vt 0.787917 0.411077
vt 0.696483 0.389120
vt 0.593750 0.376023
vt 0.483203 0.371623
vt 0.372656 0.376023
vt 0.269924 0.389120
vt 0.178490 0.411077
vt 0.747942 0.752307
vt 0.718356 0.731936
vt 0.649472 0.702882
vt 0.569735 0.684863
vt 0.483084 0.678571
vt 0.396457 0.684844
vt 0.316785 0.702848
vt 0.248011 0.731887
vt 0.286043 0.848726
vt 0.218816 0.752191
vt 0.212488 0.197471
vt 0.240361 0.102770
vt 0.176558 0.531232
vt 0.136614 0.427122
vt 0.297082 0.044493
vt 0.258914 0.075299
vt 0.365901 0.943907
vt 0.220749 0.635714
vt 0.201009 0.292059
vt 0.588250 0.931233
vt 0.552285 0.964452
vt 0.557559 0.913682
vt 0.532870 0.950090
vt 0.521814 0.903468
vt 0.509013 0.941877
vt 0.482977 0.900093
vt 0.482933 0.939315
vt 0.444142 0.903383
vt 0.456851 0.941810
vt 0.408397 0.913510
vt 0.432983 0.949956
vt 0.377693 0.930971
vt 0.413542 0.964257
vt 0.324402 0.222630
vt 0.250450 0.205748
vt 0.237821 0.296526
vt 0.313153 0.309256
vt 0.294486 0.496517
vt 0.213531 0.516321
vt 0.252061 0.622470
vt 0.321302 0.605188
vt 0.401795 0.235361
vt 0.395534 0.320051
vt 0.385352 0.484949
vt 0.399287 0.595190
vt 0.483227 0.240169
vt 0.483227 0.324350
vt 0.483203 0.481102
vt 0.483203 0.591899
vt 0.564658 0.235361
vt 0.570919 0.320051
vt 0.581055 0.484949
vt 0.567120 0.595190
vt 0.642051 0.222630
vt 0.653301 0.309256
vt 0.671921 0.496517
vt 0.645105 0.605188
vt 0.716003 0.205748
vt 0.728632 0.296526
vt 0.752876 0.516321
vt 0.714346 0.622470
vt 0.678872 0.102340
vt 0.692113 0.121671
vt 0.615943 0.131026
vt 0.624283 0.146270
vt 0.551058 0.146705
vt 0.555482 0.161614
vt 0.483227 0.151575
vt 0.483227 0.166747
vt 0.415395 0.146705
vt 0.410971 0.161614
vt 0.350511 0.131026
vt 0.342170 0.146270
vt 0.287581 0.102340
vt 0.274340 0.121671
vt 0.359342 0.808659
vt 0.307808 0.832055
vt 0.418691 0.794435
vt 0.483058 0.789543
vt 0.547440 0.794510
vt 0.606831 0.808821
vt 0.658423 0.832332
vt 0.467796 0.968828
vt 0.482897 0.966926
vt 0.444600 0.984314
vt 0.454449 0.974709
vt 0.511328 0.974793
vt 0.521152 0.984431
vt 0.497995 0.968872
vt 0.366388 0.106505
vt 0.314551 0.073070
vt 0.423616 0.123059
vt 0.483227 0.127764
vt 0.542837 0.123059
vt 0.600065 0.106505
vt 0.651902 0.073070
vt 0.397497 0.022144
vt 0.418866 0.047159
vt 0.449153 0.062494
vt 0.483227 0.068196
vt 0.517300 0.062494
vt 0.547587 0.047159
vt 0.568956 0.022144
vt 0.787917 0.411077
vt 0.696483 0.389120
vt 0.593750 0.376023
vt 0.483203 0.371623
vt 0.372656 0.376023
vt 0.269924 0.389120
vt 0.178490 0.411077
vt 0.718356 0.731936
vt 0.649472 0.702882
vt 0.569735 0.684863
vt 0.483084 0.678571
vt 0.396457 0.684844
vt 0.316785 0.702848
vt 0.248011 0.731887
vn 0.7847 0.6199 0.0000
vn 0.5600 0.8285 0.0000
vn 0.5477 0.8221 0.1554
vn 0.7640 0.6090 0.2133
vn 0.4250 0.8011 0.4214
vn 0.5815 0.5822 0.5682
vn 0.2275 0.7769 0.5872
vn 0.3047 0.5522 0.7761
vn 0.0000 0.7667 0.6420
vn 0.0000 0.5399 0.8417
vn -0.2275 0.7769 0.5872
vn -0.3047 0.5522 0.7761
vn -0.4250 0.8011 0.4214
vn -0.5815 0.5822 0.5682
vn -0.5477 0.8221 0.1554
vn -0.7640 0.6090 0.2133
vn -0.7160 0.0652 0.6951
vn -0.7062 0.1723 0.6867
vn -0.9468 0.1863 0.2625
vn -0.9614 0.0706 0.2660
vn -0.6943 0.2460 0.6763
vn -0.6808 0.3103 0.6635
vn -0.9082 0.3338 0.2525
vn -0.9289 0.2656 0.2580
vn -0.3660 0.0597 0.9287
vn -0.3616 0.1580 0.9189
vn -0.3563 0.2261 0.9066
vn -0.3504 0.2861 0.8918
vn 0.0000 0.0577 0.9983
vn 0.0000 0.1526 0.9883
vn 0.0000 0.2185 0.9758
vn 0.0000 0.2768 0.9609
vn 0.3660 0.0597 0.9287
vn 0.3616 0.1580 0.9189
vn 0.3563 0.2261 0.9066
vn 0.3504 0.2861 0.8918
vn 0.7160 0.0652 0.6951
vn 0.7062 0.1723 0.6867
vn 0.6943 0.2460 0.6763
vn 0.6808 0.3103 0.6635
vn 0.9614 0.0706 0.2660
vn 0.9468 0.1863 0.2625
vn 0.9289 0.2656 0.2580
vn 0.9082 0.3338 0.2525
vn 0.9975 0.0705 0.0000
vn 0.9826 0.1856 0.0000
vn 0.9645 0.2640 0.0000
vn 0.9432 0.3323 0.0000
vn 0.4668 -0.8843 -0.0000
vn 0.8848 -0.4659 -0.0000
vn 0.8669 -0.4382 0.2375
vn 0.4592 -0.8786 0.1311
vn 0.6521 -0.4273 0.6263
vn 0.3582 -0.8626 0.3573
vn 0.3374 -0.4127 0.8461
vn 0.1929 -0.8439 0.5007
vn 0.0000 -0.4060 0.9139
vn 0.0000 -0.8359 0.5489
vn -0.3374 -0.4127 0.8461
vn -0.1929 -0.8439 0.5007
vn -0.6521 -0.4273 0.6263
vn -0.3582 -0.8626 0.3573
vn -0.8669 -0.4382 0.2375
vn -0.4592 -0.8786 0.1311
vn -0.6593 0.3895 0.6431
vn -0.8757 0.4168 0.2438
vn -0.3409 0.3610 0.8680
vn 0.0000 0.3499 0.9368
vn 0.3409 0.3610 0.8680
vn 0.6593 0.3895 0.6431
vn 0.8757 0.4168 0.2438
vn 0.9094 0.4159 0.0000
vn 0.0000 0.9522 0.3054
vn -0.1038 0.9540 0.2813
vn -0.1978 0.9585 0.2055
vn -0.2595 0.9627 0.0771
vn 0.2595 0.9627 0.0771
vn 0.1978 0.9585 0.2055
vn 0.0000 1.0000 0.0000
vn -0.2355 0.9719 0.0000
vn 0.1038 0.9540 0.2813
vn 0.2355 0.9719 0.0000
vn -0.5600 0.8285 0.0000
vn -0.1890 -0.9628 0.1933
vn -0.2431 -0.9674 0.0711
vn -0.1014 -0.9574 0.2703
vn 0.0000 -0.9552 0.2960
vn 0.1014 -0.9574 0.2703
vn 0.1890 -0.9628 0.1933
vn 0.2431 -0.9674 0.0711
vn 0.2339 -0.9723 -0.0000
vn -0.0497 -0.9988 -0.0000
vn 0.0497 -0.9988 -0.0000
vn 0.0552 -0.9983 0.0166
vn 0.0425 -0.9981 0.0447
vn 0.0225 -0.9978 0.0618
vn 0.0000 -0.9977 0.0674
vn -0.0225 -0.9978 0.0618
vn -0.0425 -0.9981 0.0447
vn -0.0552 -0.9983 0.0166
vn -0.9094 0.4159 0.0000
vn -0.9432 0.3323 0.0000
vn -0.9975 0.0705 0.0000
vn -0.8848 -0.4659 -0.0000
vn -0.9645 0.2640 0.0000
vn -0.9826 0.1856 0.0000
vn -0.2339 -0.9723 -0.0000
vn -0.4668 -0.8843 -0.0000
vn -0.7847 0.6199 0.0000
vn 0.7640 0.6090 -0.2133
vn 0.5477 0.8221 -0.1554
vn 0.5815 0.5822 -0.5682
vn 0.4250 0.8011 -0.4214
vn 0.3047 0.5522 -0.7761
vn 0.2275 0.7769 -0.5872
vn -0.0000 0.5399 -0.8417
vn 0.0000 0.7667 -0.6420
vn -0.3047 0.5522 -0.7761
vn -0.2275 0.7769 -0.5872
vn -0.5815 0.5822 -0.5682
vn -0.4250 0.8011 -0.4214
vn -0.7640 0.6090 -0.2133
vn -0.5477 0.8221 -0.1554
vn -0.7160 0.0652 -0.6951
vn -0.9614 0.0706 -0.2660
vn -0.9468 0.1863 -0.2625
vn -0.7062 0.1723 -0.6867
vn -0.6943 0.2460 -0.6763
vn -0.9289 0.2656 -0.2580
vn -0.9082 0.3338 -0.2525
vn -0.6808 0.3103 -0.6635
vn -0.3660 0.0597 -0.9287
vn -0.3616 0.1580 -0.9189
vn -0.3563 0.2261 -0.9066
vn -0.3504 0.2861 -0.8918
vn 0.0000 0.0577 -0.9983
vn 0.0000 0.1526 -0.9883
vn 0.0000 0.2185 -0.9758
vn 0.0000 0.2768 -0.9609
vn 0.3660 0.0597 -0.9287
vn 0.3616 0.1580 -0.9189
vn 0.3563 0.2261 -0.9066
vn 0.3504 0.2861 -0.8918
vn 0.7160 0.0652 -0.6951
vn 0.7062 0.1723 -0.6867
vn 0.6943 0.2460 -0.6763
vn 0.6808 0.3103 -0.6635
vn 0.9614 0.0706 -0.2660
vn 0.9468 0.1863 -0.2625
vn 0.9289 0.2656 -0.2580
vn 0.9082 0.3338 -0.2525
vn 0.4592 -0.8786 -0.1311
vn 0.8669 -0.4382 -0.2375
vn 0.3582 -0.8626 -0.3573
vn 0.6521 -0.4273 -0.6263
vn 0.1929 -0.8439 -0.5007
vn 0.3374 -0.4127 -0.8461
vn 0.0000 -0.8359 -0.5489
vn 0.0000 -0.4060 -0.9139
vn -0.1929 -0.8439 -0.5007
vn -0.3374 -0.4127 -0.8461
vn -0.3582 -0.8626 -0.3573
vn -0.6521 -0.4273 -0.6263
vn -0.4592 -0.8786 -0.1311
vn -0.8669 -0.4382 -0.2375
vn -0.6593 0.3895 -0.6431
vn -0.8757 0.4168 -0.2438
vn -0.3409 0.3610 -0.8680
vn 0.0000 0.3499 -0.9368
vn 0.3409 0.3610 -0.8680
vn 0.6593 0.3895 -0.6431
vn 0.8757 0.4168 -0.2438
vn -0.1038 0.9540 -0.2813
vn 0.0000 0.9522 -0.3054
vn -0.2595 0.9627 -0.0771
vn -0.1978 0.9585 -0.2055
vn 0.1978 0.9585 -0.2055
vn 0.2595 0.9627 -0.0771
vn 0.1038 0.9540 -0.2813
vn -0.1890 -0.9628 -0.1933
vn -0.2431 -0.9674 -0.0711
vn -0.1014 -0.9574 -0.2703
vn -0.0000 -0.9552 -0.2960
vn 0.1014 -0.9574 -0.2703
vn 0.1890 -0.9628 -0.1933
vn 0.2431 -0.9674 -0.0711
vn -0.0552 -0.9983 -0.0166
vn -0.0425 -0.9981 -0.0447
vn -0.0225 -0.9978 -0.0618
vn -0.0000 -0.9977 -0.0674
vn 0.0225 -0.9978 -0.0618
vn 0.0425 -0.9981 -0.0447
vn 0.0552 -0.9983 -0.0166
usemtl None
s 1
f 173/1/1 174/2/2 1/3/3 2/4/4
f 2/4/4 1/3/3 3/5/5 4/6/6
f 4/6/6 3/5/5 5/7/7 6/8/8
f 6/8/8 5/7/7 7/9/9 8/10/10
f 8/10/10 7/9/9 9/11/11 10/12/12
f 10/12/12 9/11/11 11/13/13 12/14/14
f 12/14/14 11/13/13 13/15/15 14/16/16
f 19/17/17 20/18/18 16/19/19 15/20/20
f 21/21/21 22/22/22 18/23/23 17/24/24
f 23/25/25 24/26/26 20/18/18 19/17/17
f 25/27/27 26/28/28 22/22/22 21/21/21
f 27/29/29 28/30/30 24/26/26 23/25/25
f 29/31/31 30/32/32 26/28/28 25/27/27
f 31/33/33 32/34/34 28/30/30 27/29/29
f 33/35/35 34/36/36 30/32/32 29/31/31
f 35/37/37 36/38/38 32/34/34 31/33/33
f 37/39/39 38/40/40 34/36/36 33/35/35
f 39/41/41 40/42/42 36/38/38 35/37/37
f 41/43/43 42/44/44 38/40/40 37/39/39
f 181/45/45 182/46/46 40/42/42 39/41/41
f 183/47/47 184/48/48 42/44/44 41/43/43
f 185/49/49 186/50/50 43/51/51 44/52/52
f 44/52/52 43/51/51 45/53/53 46/54/54
f 46/54/54 45/53/53 47/55/55 48/56/56
f 48/56/56 47/55/55 49/57/57 50/58/58
f 50/58/58 49/57/57 51/59/59 52/60/60
f 52/60/60 51/59/59 53/61/61 54/62/62
f 54/62/62 53/61/61 55/63/63 56/64/64
f 58/65/65 12/14/14 14/16/16 57/66/66
f 59/67/67 10/12/12 12/14/14 58/65/65
f 60/68/68 8/10/10 10/12/12 59/67/67
f 61/69/69 6/8/8 8/10/10 60/68/68
f 62/70/70 4/6/6 6/8/8 61/69/69
f 63/71/71 2/4/4 4/6/6 62/70/70
f 190/72/72 173/1/1 2/4/4 63/71/71
f 9/11/11 7/9/9 64/73/73 65/74/74
f 13/15/15 11/13/13 67/75/75 68/76/76
f 3/5/5 1/3/3 69/77/77 70/78/78
f 191/79/79 192/80/80 68/76/76 67/75/75
f 193/81/79 194/82/79 64/73/73 72/83/81
f 195/84/79 193/81/79 72/83/81 70/78/78
f 196/85/82 195/84/79 70/78/78 69/77/77
f 194/82/79 197/86/79 65/74/74 64/73/73
f 197/86/79 191/79/79 67/75/75 65/74/74
f 5/7/7 3/5/5 70/78/78 72/83/81
f 176/87/83 13/15/15 68/76/76 192/80/80
f 11/13/13 9/11/11 65/74/74 67/75/75
f 7/9/9 5/7/7 72/83/81 64/73/73
f 74/88/84 54/62/62 56/64/64 73/89/85
f 75/90/86 52/60/60 54/62/62 74/88/84
f 76/91/87 50/58/58 52/60/60 75/90/86
f 77/92/88 48/56/56 50/58/58 76/91/87
f 78/93/89 46/54/54 48/56/56 77/92/88
f 79/94/90 44/52/52 46/54/54 78/93/89
f 199/95/91 185/49/49 44/52/52 79/94/90
f 201/96/92 200/97/93 80/98/94 81/99/95 82/100/96 83/101/97 84/102/98 85/103/99 86/104/100
f 76/91/87 75/90/86 84/102/98 83/101/97
f 78/93/89 77/92/88 82/100/96 81/99/95
f 199/95/91 79/94/90 80/98/94 200/97/93
f 75/90/86 74/88/84 85/103/99 84/102/98
f 77/92/88 76/91/87 83/101/97 82/100/96
f 79/94/90 78/93/89 81/99/95 80/98/94
f 74/88/84 73/89/85 86/104/100 85/103/99
f 182/105/46 183/47/47 41/43/43 40/106/42
f 40/106/42 41/43/43 37/39/39 36/107/38
f 36/107/38 37/39/39 33/35/35 32/108/34
f 32/108/34 33/35/35 29/31/31 28/109/30
f 28/109/30 29/31/31 25/27/27 24/110/26
f 24/110/26 25/27/27 21/21/21 20/111/18
f 20/111/18 21/21/21 17/24/24 16/112/19
f 186/50/50 181/45/45 39/41/41 43/51/51
f 43/51/51 39/41/41 35/37/37 45/53/53
f 45/53/53 35/37/37 31/33/33 47/55/55
f 47/55/55 31/33/33 27/29/29 49/57/57
f 49/57/57 27/29/29 23/25/25 51/59/59
f 51/59/59 23/25/25 19/17/17 53/61/61
f 53/61/61 19/17/17 15/20/20 55/63/63
f 184/113/48 190/72/72 63/71/71 42/114/44
f 42/114/44 63/71/71 62/70/70 38/115/40
f 38/115/40 62/70/70 61/69/69 34/116/36
f 34/116/36 61/69/69 60/68/68 30/117/32
f 30/117/32 60/68/68 59/67/67 26/118/28
f 26/118/28 59/67/67 58/65/65 22/119/22
f 22/119/22 58/65/65 57/66/66 18/120/23
f 18/120/23 57/66/66 189/121/101 180/122/102
f 55/63/63 15/20/20 177/123/103 188/124/104
f 16/112/19 17/24/24 179/125/105 178/126/106
f 73/89/85 198/127/107 201/96/92 86/104/100
f 73/89/85 56/64/64 187/128/108 198/127/107
f 1/3/3 174/2/2 196/85/82 69/77/77
f 57/66/66 14/16/16 175/129/109 189/121/101
f 56/64/64 55/63/63 188/124/104 187/128/108
f 17/24/24 18/23/23 180/130/102 179/125/105
f 15/20/20 16/19/19 178/131/106 177/123/103
f 14/16/16 13/15/15 176/87/83 175/129/109
f 173/1/1 88/132/110 87/133/111 174/2/2
f 88/132/110 90/134/112 89/135/113 87/133/111
f 90/134/112 92/136/114 91/137/115 89/135/113
f 92/136/114 94/138/116 93/139/117 91/137/115
f 94/138/116 96/140/118 95/141/119 93/139/117
f 96/140/118 98/142/120 97/143/121 95/141/119
f 98/142/120 100/144/122 99/145/123 97/143/121
f 105/146/124 101/147/125 102/148/126 106/149/127
f 107/150/128 103/151/129 104/152/130 108/153/131
f 109/154/132 105/146/124 106/149/127 110/155/133
f 111/156/134 107/150/128 108/153/131 112/157/135
f 113/158/136 109/154/132 110/155/133 114/159/137
f 115/160/138 111/156/134 112/157/135 116/161/139
f 117/162/140 113/158/136 114/159/137 118/163/141
f 119/164/142 115/160/138 116/161/139 120/165/143
f 121/166/144 117/162/140 118/163/141 122/167/145
f 123/168/146 119/164/142 120/165/143 124/169/147
f 125/170/148 121/166/144 122/167/145 126/171/149
f 127/172/150 123/168/146 124/169/147 128/173/151
f 181/45/45 125/170/148 126/171/149 182/46/46
f 183/47/47 127/172/150 128/173/151 184/48/48
f 185/49/49 130/174/152 129/175/153 186/50/50
f 130/174/152 132/176/154 131/177/155 129/175/153
f 132/176/154 134/178/156 133/179/157 131/177/155
f 134/178/156 136/180/158 135/181/159 133/179/157
f 136/180/158 138/182/160 137/183/161 135/181/159
f 138/182/160 140/184/162 139/185/163 137/183/161
f 140/184/162 142/186/164 141/187/165 139/185/163
f 144/188/166 143/189/167 100/144/122 98/142/120
f 145/190/168 144/188/166 98/142/120 96/140/118
f 146/191/169 145/190/168 96/140/118 94/138/116
f 147/192/170 146/191/169 94/138/116 92/136/114
f 148/193/171 147/192/170 92/136/114 90/134/112
f 149/194/172 148/193/171 90/134/112 88/132/110
f 190/72/72 149/194/172 88/132/110 173/1/1
f 95/141/119 151/195/173 150/196/174 93/139/117
f 99/145/123 154/197/175 153/198/176 97/143/121
f 89/135/113 156/199/177 155/200/178 87/133/111
f 191/79/79 153/198/176 154/197/175 192/80/80
f 193/81/79 158/201/179 150/196/174 194/82/79
f 195/84/79 156/199/177 158/201/179 193/81/79
f 196/85/82 155/200/178 156/199/177 195/84/79
f 194/82/79 150/196/174 151/195/173 197/86/79
f 197/86/79 151/195/173 153/198/176 191/79/79
f 91/137/115 158/201/179 156/199/177 89/135/113
f 176/87/83 192/80/80 154/197/175 99/145/123
f 97/143/121 153/198/176 151/195/173 95/141/119
f 93/139/117 150/196/174 158/201/179 91/137/115
f 160/202/180 159/203/181 142/186/164 140/184/162
f 161/204/182 160/202/180 140/184/162 138/182/160
f 162/205/183 161/204/182 138/182/160 136/180/158
f 163/206/184 162/205/183 136/180/158 134/178/156
f 164/207/185 163/206/184 134/178/156 132/176/154
f 165/208/186 164/207/185 132/176/154 130/174/152
f 199/95/91 165/208/186 130/174/152 185/49/49
f 201/96/92 172/209/187 171/210/188 170/211/189 169/212/190 168/213/191 167/214/192 166/215/193 200/97/93
f 162/205/183 169/212/190 170/211/189 161/204/182
f 164/207/185 167/214/192 168/213/191 163/206/184
f 199/95/91 200/97/93 166/215/193 165/208/186
f 161/204/182 170/211/189 171/210/188 160/202/180
f 163/206/184 168/213/191 169/212/190 162/205/183
f 165/208/186 166/215/193 167/214/192 164/207/185
f 160/202/180 171/210/188 172/209/187 159/203/181
f 182/105/46 126/216/149 127/172/150 183/47/47
f 126/216/149 122/217/145 123/168/146 127/172/150
f 122/217/145 118/218/141 119/164/142 123/168/146
f 118/218/141 114/219/137 115/160/138 119/164/142
f 114/219/137 110/220/133 111/156/134 115/160/138
f 110/220/133 106/221/127 107/150/128 111/156/134
f 106/221/127 102/222/126 103/151/129 107/150/128
f 186/50/50 129/175/153 125/170/148 181/45/45
f 129/175/153 131/177/155 121/166/144 125/170/148
f 131/177/155 133/179/157 117/162/140 121/166/144
f 133/179/157 135/181/159 113/158/136 117/162/140
f 135/181/159 137/183/161 109/154/132 113/158/136
f 137/183/161 139/185/163 105/146/124 109/154/132
f 139/185/163 141/187/165 101/147/125 105/146/124
f 184/113/48 128/223/151 149/194/172 190/72/72
f 128/223/151 124/224/147 148/193/171 149/194/172
f 124/224/147 120/225/143 147/192/170 148/193/171
f 120/225/143 116/226/139 146/191/169 147/192/170
f 116/226/139 112/227/135 145/190/168 146/191/169
f 112/227/135 108/228/131 144/188/166 145/190/168
f 108/228/131 104/229/130 143/189/167 144/188/166
f 104/229/130 180/122/102 189/121/101 143/189/167
f 141/187/165 188/124/104 177/123/103 101/147/125
f 102/222/126 178/126/106 179/125/105 103/151/129
f 159/203/181 172/209/187 201/96/92 198/127/107
f 159/203/181 198/127/107 187/128/108 142/186/164
f 87/133/111 155/200/178 196/85/82 174/2/2
f 143/189/167 189/121/101 175/129/109 100/144/122
f 142/186/164 187/128/108 188/124/104 141/187/165
f 103/151/129 179/125/105 180/130/102 104/152/130
f 101/147/125 177/123/103 178/131/106 102/148/126
f 100/144/122 175/129/109 176/87/83 99/145/123
l 192 71
l 66 196
l 192 157
l 152 196
