# Blender v2.82 (sub 7) OBJ File: ''
# www.blender.org
mtllib fencetwo.mtl
o Cylinder.002_Cylinder.007
v -1.570468 1.604703 -0.150422
v 1.397472 1.297160 -0.198640
v 1.391418 1.236511 -0.184431
v -1.576521 1.544055 -0.136213
v 1.387025 1.187958 -0.145188
v -1.580915 1.495502 -0.096970
v 1.385161 1.161117 -0.088683
v -1.582778 1.468660 -0.040465
v 1.386197 1.161303 -0.026108
v -1.581743 1.468847 0.022110
v 1.389927 1.188480 0.030144
v -1.578012 1.496024 0.078362
v 1.395613 1.237266 0.068930
v -1.572327 1.544810 0.117148
v 1.402128 1.297997 0.082569
v -1.565812 1.605541 0.130788
v 1.408181 1.358646 0.068360
v -1.559759 1.666189 0.116579
v 1.412575 1.407199 0.029117
v -1.555365 1.714743 0.077335
v 1.414438 1.434041 -0.027388
v -1.553502 1.741584 0.020830
v 1.413403 1.433854 -0.089963
v -1.554538 1.741398 -0.041745
v 1.409672 1.406677 -0.146214
v -1.558268 1.714220 -0.097996
v 1.403987 1.357891 -0.185001
v -1.563953 1.665435 -0.136783
v 1.499999 -0.000002 -0.140624
v 1.499999 2.245620 -0.140623
v 1.561014 2.245620 -0.126697
v 1.561014 -0.000002 -0.126698
v 1.609944 2.245620 -0.087676
v 1.609944 -0.000002 -0.087677
v 1.637099 2.245620 -0.031290
v 1.637099 -0.000002 -0.031291
v 1.637099 2.245620 0.031294
v 1.637099 -0.000002 0.031293
v 1.609944 2.245620 0.087680
v 1.609944 -0.000002 0.087679
v 1.561014 2.245620 0.126701
v 1.561014 -0.000002 0.126700
v 1.499999 2.245620 0.140627
v 1.499999 -0.000002 0.140626
v 1.438985 2.245620 0.126701
v 1.438985 -0.000002 0.126700
v 1.390054 2.245620 0.087680
v 1.390054 -0.000002 0.087679
v 1.362900 2.245620 0.031294
v 1.362900 -0.000002 0.031293
v 1.362900 2.245620 -0.031290
v 1.362900 -0.000002 -0.031291
v 1.390054 2.245620 -0.087676
v 1.390054 -0.000002 -0.087677
v 1.438985 2.245620 -0.126697
v 1.438985 -0.000002 -0.126698
v -1.500001 -0.000002 -0.140624
v -1.500001 2.245620 -0.140623
v -1.438986 2.245620 -0.126697
v -1.438986 -0.000002 -0.126698
v -1.390056 2.245620 -0.087676
v -1.390056 -0.000002 -0.087677
v -1.362901 2.245620 -0.031290
v -1.362901 -0.000002 -0.031291
v -1.362901 2.245620 0.031294
v -1.362901 -0.000002 0.031293
v -1.390056 2.245620 0.087680
v -1.390056 -0.000002 0.087679
v -1.438986 2.245620 0.126701
v -1.438986 -0.000002 0.126700
v -1.500001 2.245620 0.140627
v -1.500001 -0.000002 0.140626
v -1.561015 2.245620 0.126701
v -1.561015 -0.000002 0.126700
v -1.609946 2.245620 0.087680
v -1.609946 -0.000002 0.087679
v -1.637100 2.245620 0.031294
v -1.637100 -0.000002 0.031293
v -1.637100 2.245620 -0.031290
v -1.637100 -0.000002 -0.031291
v -1.609946 2.245620 -0.087676
v -1.609946 -0.000002 -0.087677
v -1.561015 2.245620 -0.126697
v -1.561015 -0.000002 -0.126698
v -1.492111 0.622809 -0.140624
v 1.492110 0.622809 -0.140623
v 1.492109 0.561794 -0.126697
v -1.492111 0.561794 -0.126698
v 1.492110 0.512864 -0.087676
v -1.492111 0.512864 -0.087677
v 1.492110 0.485710 -0.031290
v -1.492111 0.485710 -0.031291
v 1.492110 0.485710 0.031294
v -1.492111 0.485710 0.031293
v 1.492110 0.512864 0.087680
v -1.492111 0.512864 0.087679
v 1.492109 0.561794 0.126701
v -1.492111 0.561794 0.126700
v 1.492110 0.622809 0.140627
v -1.492111 0.622809 0.140626
v 1.492110 0.683824 0.126701
v -1.492111 0.683824 0.126700
v 1.492110 0.732754 0.087680
v -1.492111 0.732754 0.087679
v 1.492110 0.759909 0.031294
v -1.492111 0.759909 0.031293
v 1.492110 0.759909 -0.031290
v -1.492111 0.759909 -0.031291
v 1.492110 0.732754 -0.087676
v -1.492111 0.732754 -0.087677
v 1.492110 0.683824 -0.126697
v -1.492111 0.683824 -0.126698
vt 0.949426 0.542603
vt 0.949445 0.993801
vt 0.885240 0.993801
vt 0.885224 0.542604
vt 0.821034 0.993802
vt 0.821022 0.542604
vt 0.756829 0.993802
vt 0.756820 0.542604
vt 0.692624 0.993802
vt 0.692618 0.542604
vt 0.628418 0.993802
vt 0.628416 0.542604
vt 0.564213 0.993802
vt 0.564214 0.542604
vt 0.500007 0.993802
vt 0.500012 0.542604
vt 0.435802 0.993802
vt 0.435810 0.542604
vt 0.371597 0.993801
vt 0.371607 0.542604
vt 0.307391 0.993801
vt 0.307405 0.542604
vt 0.243186 0.993801
vt 0.243203 0.542604
vt 0.178981 0.993801
vt 0.179001 0.542604
vt 0.114775 0.993801
vt 0.114799 0.542604
vt 0.050570 0.993801
vt 0.050597 0.542603
vt 0.553425 0.222856
vt 0.581489 0.164580
vt 0.581489 0.345813
vt 0.553425 0.287537
vt 0.758177 0.124253
vt 0.808747 0.164581
vt 0.808747 0.345813
vt 0.758177 0.386141
vt 0.836811 0.222856
vt 0.836811 0.287537
vt 0.632058 0.124253
vt 0.695118 0.109860
vt 0.695118 0.400533
vt 0.632058 0.386141
vt 0.202852 0.165027
vt 0.202717 0.346014
vt 0.174735 0.287797
vt 0.174783 0.223203
vt 0.429803 0.165197
vt 0.457785 0.223415
vt 0.457737 0.288008
vt 0.429668 0.346184
vt 0.253384 0.124792
vt 0.316368 0.110466
vt 0.316152 0.400746
vt 0.253188 0.386325
vt 0.379332 0.124886
vt 0.379136 0.386419
vt 0.949426 0.542603
vt 0.949445 0.993801
vt 0.885240 0.993801
vt 0.885224 0.542604
vt 0.821034 0.993802
vt 0.821022 0.542604
vt 0.756829 0.993802
vt 0.756820 0.542604
vt 0.692624 0.993802
vt 0.692618 0.542604
vt 0.628418 0.993802
vt 0.628416 0.542604
vt 0.564213 0.993802
vt 0.564214 0.542604
vt 0.500007 0.993802
vt 0.500012 0.542604
vt 0.435802 0.993802
vt 0.435810 0.542604
vt 0.371597 0.993801
vt 0.371607 0.542604
vt 0.307391 0.993801
vt 0.307405 0.542604
vt 0.243186 0.993801
vt 0.243203 0.542604
vt 0.178981 0.993801
vt 0.179001 0.542604
vt 0.114775 0.993801
vt 0.114799 0.542604
vt 0.050570 0.993801
vt 0.050597 0.542603
vt 0.553425 0.222856
vt 0.581489 0.164580
vt 0.581489 0.345813
vt 0.553425 0.287537
vt 0.758177 0.124253
vt 0.808747 0.164581
vt 0.808747 0.345813
vt 0.758177 0.386141
vt 0.836811 0.222856
vt 0.836811 0.287537
vt 0.632058 0.124253
vt 0.695118 0.109860
vt 0.695118 0.400533
vt 0.632058 0.386141
vt 0.202852 0.165027
vt 0.202717 0.346014
vt 0.174735 0.287797
vt 0.174783 0.223203
vt 0.429803 0.165197
vt 0.457785 0.223415
vt 0.457737 0.288008
vt 0.429668 0.346184
vt 0.253384 0.124792
vt 0.316368 0.110466
vt 0.316152 0.400746
vt 0.253188 0.386325
vt 0.379332 0.124886
vt 0.379136 0.386419
vt 0.949426 0.542603
vt 0.949445 0.993801
vt 0.885240 0.993801
vt 0.885224 0.542604
vt 0.821034 0.993802
vt 0.821022 0.542604
vt 0.756829 0.993802
vt 0.756820 0.542604
vt 0.692624 0.993802
vt 0.692618 0.542604
vt 0.628418 0.993802
vt 0.628416 0.542604
vt 0.564213 0.993802
vt 0.564214 0.542604
vt 0.500007 0.993802
vt 0.500012 0.542604
vt 0.435802 0.993802
vt 0.435810 0.542604
vt 0.371597 0.993801
vt 0.371607 0.542604
vt 0.307391 0.993801
vt 0.307405 0.542604
vt 0.243186 0.993801
vt 0.243203 0.542604
vt 0.178981 0.993801
vt 0.179001 0.542604
vt 0.114775 0.993801
vt 0.114799 0.542604
vt 0.050570 0.993801
vt 0.050597 0.542603
vt 0.553425 0.222856
vt 0.581489 0.164580
vt 0.581489 0.345813
vt 0.553425 0.287537
vt 0.758177 0.124253
vt 0.808747 0.164581
vt 0.808747 0.345813
vt 0.758177 0.386141
vt 0.836811 0.222856
vt 0.836811 0.287537
vt 0.632058 0.124253
vt 0.695118 0.109860
vt 0.695118 0.400533
vt 0.632058 0.386141
vt 0.202852 0.165027
vt 0.202717 0.346014
vt 0.174735 0.287797
vt 0.174783 0.223203
vt 0.429803 0.165197
vt 0.457785 0.223415
vt 0.457737 0.288008
vt 0.429668 0.346184
vt 0.253384 0.124792
vt 0.316368 0.110466
vt 0.316152 0.400746
vt 0.253188 0.386325
vt 0.379332 0.124886
vt 0.379136 0.386419
vt 0.949426 0.542603
vt 0.949445 0.993801
vt 0.885240 0.993801
vt 0.885224 0.542604
vt 0.821034 0.993802
vt 0.821022 0.542604
vt 0.756829 0.993802
vt 0.756820 0.542604
vt 0.692624 0.993802
vt 0.692618 0.542604
vt 0.628418 0.993802
vt 0.628416 0.542604
vt 0.564213 0.993802
vt 0.564214 0.542604
vt 0.500007 0.993802
vt 0.500012 0.542604
vt 0.435802 0.993802
vt 0.435810 0.542604
vt 0.371597 0.993801
vt 0.371607 0.542604
vt 0.307391 0.993801
vt 0.307405 0.542604
vt 0.243186 0.993801
vt 0.243203 0.542604
vt 0.178981 0.993801
vt 0.179001 0.542604
vt 0.114775 0.993801
vt 0.114799 0.542604
vt 0.050570 0.993801
vt 0.050597 0.542603
vt 0.553425 0.222856
vt 0.581489 0.164580
vt 0.581489 0.345813
vt 0.553425 0.287537
vt 0.758177 0.124253
vt 0.808747 0.164581
vt 0.808747 0.345813
vt 0.758177 0.386141
vt 0.836811 0.222856
vt 0.836811 0.287537
vt 0.632058 0.124253
vt 0.695118 0.109860
vt 0.695118 0.400533
vt 0.632058 0.386141
vt 0.202852 0.165027
vt 0.202717 0.346014
vt 0.174735 0.287797
vt 0.174783 0.223203
vt 0.429803 0.165197
vt 0.457785 0.223415
vt 0.457737 0.288008
vt 0.429668 0.346184
vt 0.253384 0.124792
vt 0.316368 0.110466
vt 0.316152 0.400746
vt 0.253188 0.386325
vt 0.379332 0.124886
vt 0.379136 0.386419
vn -0.6691 0.0658 -0.7402
vn 0.6442 -0.0703 -0.7616
vn 0.6119 -0.3942 -0.6857
vn -0.7014 -0.2581 -0.6644
vn 0.5885 -0.6535 -0.4761
vn -0.7249 -0.5174 -0.4548
vn 0.5785 -0.7968 -0.1743
vn -0.7349 -0.6607 -0.1530
vn 0.5840 -0.7958 0.1598
vn -0.7293 -0.6597 0.1812
vn 0.6040 -0.6507 0.4603
vn -0.7094 -0.5146 0.4816
vn 0.6343 -0.3901 0.6674
vn -0.6790 -0.2541 0.6887
vn 0.6691 -0.0658 0.7402
vn -0.6442 0.0703 0.7616
vn 0.7014 0.2581 0.6644
vn -0.6119 0.3942 0.6857
vn 0.7249 0.5174 0.4548
vn -0.5885 0.6535 0.4761
vn 0.7349 0.6607 0.1530
vn -0.5785 0.7968 0.1743
vn 0.7293 0.6597 -0.1812
vn -0.5840 0.7958 -0.1598
vn 0.7094 0.5146 -0.4816
vn -0.6040 0.6507 -0.4603
vn 0.6790 0.2541 -0.6887
vn -0.6343 0.3901 -0.6674
vn -0.0000 -0.6603 -0.7510
vn -0.0000 0.6603 -0.7510
vn 0.3259 0.6603 -0.6766
vn 0.3259 -0.6603 -0.6766
vn 0.5872 0.6603 -0.4683
vn 0.5872 -0.6603 -0.4683
vn 0.7322 0.6603 -0.1671
vn 0.7322 -0.6603 -0.1671
vn 0.7322 0.6603 0.1671
vn 0.7322 -0.6603 0.1671
vn 0.5872 0.6603 0.4683
vn 0.5872 -0.6603 0.4683
vn 0.3259 0.6603 0.6766
vn 0.3259 -0.6603 0.6766
vn -0.0000 0.6603 0.7510
vn -0.0000 -0.6603 0.7510
vn -0.3259 0.6603 0.6766
vn -0.3259 -0.6603 0.6766
vn -0.5872 0.6603 0.4683
vn -0.5872 -0.6603 0.4683
vn -0.7322 0.6603 0.1671
vn -0.7322 -0.6603 0.1671
vn -0.7322 0.6603 -0.1671
vn -0.7322 -0.6603 -0.1671
vn -0.5872 0.6603 -0.4683
vn -0.5872 -0.6603 -0.4683
vn -0.3259 0.6603 -0.6766
vn -0.3259 -0.6603 -0.6766
vn -0.6603 0.0000 -0.7510
vn 0.6603 -0.0000 -0.7510
vn 0.6603 -0.3259 -0.6766
vn -0.6603 -0.3259 -0.6766
vn 0.6603 -0.5872 -0.4683
vn -0.6603 -0.5872 -0.4683
vn 0.6603 -0.7322 -0.1671
vn -0.6603 -0.7322 -0.1671
vn 0.6603 -0.7322 0.1671
vn -0.6603 -0.7322 0.1671
vn 0.6603 -0.5872 0.4683
vn -0.6603 -0.5872 0.4683
vn 0.6603 -0.3259 0.6766
vn -0.6603 -0.3259 0.6766
vn 0.6603 -0.0000 0.7510
vn -0.6603 0.0000 0.7510
vn 0.6603 0.3259 0.6766
vn -0.6603 0.3259 0.6766
vn 0.6603 0.5872 0.4683
vn -0.6603 0.5872 0.4683
vn 0.6603 0.7322 0.1671
vn -0.6603 0.7322 0.1671
vn 0.6603 0.7322 -0.1671
vn -0.6603 0.7322 -0.1671
vn 0.6603 0.5872 -0.4683
vn -0.6603 0.5872 -0.4683
vn 0.6603 0.3259 -0.6766
vn -0.6603 0.3259 -0.6766
usemtl None
s 1
f 1/1/1 2/2/2 3/3/3 4/4/4
f 4/4/4 3/3/3 5/5/5 6/6/6
f 6/6/6 5/5/5 7/7/7 8/8/8
f 8/8/8 7/7/7 9/9/9 10/10/10
f 10/10/10 9/9/9 11/11/11 12/12/12
f 12/12/12 11/11/11 13/13/13 14/14/14
f 14/14/14 13/13/13 15/15/15 16/16/16
f 16/16/16 15/15/15 17/17/17 18/18/18
f 18/18/18 17/17/17 19/19/19 20/20/20
f 20/20/20 19/19/19 21/21/21 22/22/22
f 22/22/22 21/21/21 23/23/23 24/24/24
f 24/24/24 23/23/23 25/25/25 26/26/26
f 26/26/26 25/25/25 27/27/27 28/28/28
f 28/28/28 27/27/27 2/29/2 1/30/1
f 24/31/24 26/32/26 20/33/20 22/34/22
f 4/35/4 6/36/6 12/37/12 14/38/14
f 6/36/6 8/39/8 10/40/10 12/37/12
f 28/41/28 1/42/1 16/43/16 18/44/18
f 1/42/1 4/35/4 14/38/14 16/43/16
f 26/32/26 28/41/28 18/44/18 20/33/20
f 5/45/5 11/46/11 9/47/9 7/48/7
f 25/49/25 23/50/23 21/51/21 19/52/19
f 3/53/3 2/54/2 15/55/15 13/56/13
f 2/54/2 27/57/27 17/58/17 15/55/15
f 27/57/27 25/49/25 19/52/19 17/58/17
f 3/53/3 13/56/13 11/46/11 5/45/5
f 29/59/29 30/60/30 31/61/31 32/62/32
f 32/62/32 31/61/31 33/63/33 34/64/34
f 34/64/34 33/63/33 35/65/35 36/66/36
f 36/66/36 35/65/35 37/67/37 38/68/38
f 38/68/38 37/67/37 39/69/39 40/70/40
f 40/70/40 39/69/39 41/71/41 42/72/42
f 42/72/42 41/71/41 43/73/43 44/74/44
f 44/74/44 43/73/43 45/75/45 46/76/46
f 46/76/46 45/75/45 47/77/47 48/78/48
f 48/78/48 47/77/47 49/79/49 50/80/50
f 50/80/50 49/79/49 51/81/51 52/82/52
f 52/82/52 51/81/51 53/83/53 54/84/54
f 54/84/54 53/83/53 55/85/55 56/86/56
f 56/86/56 55/85/55 30/87/30 29/88/29
f 52/89/52 54/90/54 48/91/48 50/92/50
f 32/93/32 34/94/34 40/95/40 42/96/42
f 34/94/34 36/97/36 38/98/38 40/95/40
f 56/99/56 29/100/29 44/101/44 46/102/46
f 29/100/29 32/93/32 42/96/42 44/101/44
f 54/90/54 56/99/56 46/102/46 48/91/48
f 33/103/33 39/104/39 37/105/37 35/106/35
f 53/107/53 51/108/51 49/109/49 47/110/47
f 31/111/31 30/112/30 43/113/43 41/114/41
f 30/112/30 55/115/55 45/116/45 43/113/43
f 55/115/55 53/107/53 47/110/47 45/116/45
f 31/111/31 41/114/41 39/104/39 33/103/33
f 57/117/29 58/118/30 59/119/31 60/120/32
f 60/120/32 59/119/31 61/121/33 62/122/34
f 62/122/34 61/121/33 63/123/35 64/124/36
f 64/124/36 63/123/35 65/125/37 66/126/38
f 66/126/38 65/125/37 67/127/39 68/128/40
f 68/128/40 67/127/39 69/129/41 70/130/42
f 70/130/42 69/129/41 71/131/43 72/132/44
f 72/132/44 71/131/43 73/133/45 74/134/46
f 74/134/46 73/133/45 75/135/47 76/136/48
f 76/136/48 75/135/47 77/137/49 78/138/50
f 78/138/50 77/137/49 79/139/51 80/140/52
f 80/140/52 79/139/51 81/141/53 82/142/54
f 82/142/54 81/141/53 83/143/55 84/144/56
f 84/144/56 83/143/55 58/145/30 57/146/29
f 80/147/52 82/148/54 76/149/48 78/150/50
f 60/151/32 62/152/34 68/153/40 70/154/42
f 62/152/34 64/155/36 66/156/38 68/153/40
f 84/157/56 57/158/29 72/159/44 74/160/46
f 57/158/29 60/151/32 70/154/42 72/159/44
f 82/148/54 84/157/56 74/160/46 76/149/48
f 61/161/33 67/162/39 65/163/37 63/164/35
f 81/165/53 79/166/51 77/167/49 75/168/47
f 59/169/31 58/170/30 71/171/43 69/172/41
f 58/170/30 83/173/55 73/174/45 71/171/43
f 83/173/55 81/165/53 75/168/47 73/174/45
f 59/169/31 69/172/41 67/162/39 61/161/33
f 85/175/57 86/176/58 87/177/59 88/178/60
f 88/178/60 87/177/59 89/179/61 90/180/62
f 90/180/62 89/179/61 91/181/63 92/182/64
f 92/182/64 91/181/63 93/183/65 94/184/66
f 94/184/66 93/183/65 95/185/67 96/186/68
f 96/186/68 95/185/67 97/187/69 98/188/70
f 98/188/70 97/187/69 99/189/71 100/190/72
f 100/190/72 99/189/71 101/191/73 102/192/74
f 102/192/74 101/191/73 103/193/75 104/194/76
f 104/194/76 103/193/75 105/195/77 106/196/78
f 106/196/78 105/195/77 107/197/79 108/198/80
f 108/198/80 107/197/79 109/199/81 110/200/82
f 110/200/82 109/199/81 111/201/83 112/202/84
f 112/202/84 111/201/83 86/203/58 85/204/57
f 108/205/80 110/206/82 104/207/76 106/208/78
f 88/209/60 90/210/62 96/211/68 98/212/70
f 90/210/62 92/213/64 94/214/66 96/211/68
f 112/215/84 85/216/57 100/217/72 102/218/74
f 85/216/57 88/209/60 98/212/70 100/217/72
f 110/206/82 112/215/84 102/218/74 104/207/76
f 89/219/61 95/220/67 93/221/65 91/222/63
f 109/223/81 107/224/79 105/225/77 103/226/75
f 87/227/59 86/228/58 99/229/71 97/230/69
f 86/228/58 111/231/83 101/232/73 99/229/71
f 111/231/83 109/223/81 103/226/75 101/232/73
f 87/227/59 97/230/69 95/220/67 89/219/61
