# Blender v2.80 (sub 75) OBJ File: 'models.blend'
# www.blender.org
mtllib jumppad.mtl
o Cylinder.006_Cylinder.003
v 0.000001 1.818353 -0.861812
v 0.000000 0.103680 -0.248340
v -0.373926 1.818353 -0.776466
v -0.107750 0.103680 -0.223746
v -0.673791 1.818354 -0.537331
v -0.194159 0.103680 -0.154837
v -0.840204 1.818354 -0.191771
v -0.242113 0.103679 -0.055261
v -0.840204 1.818354 0.191771
v -0.242113 0.103679 0.055261
v -0.673791 1.818354 0.537331
v -0.194159 0.103680 0.154837
v -0.373926 1.818353 0.776466
v -0.107750 0.103680 0.223747
v 0.000001 1.818353 0.861812
v 0.000000 0.103680 0.248340
v 0.373927 1.818353 0.776466
v 0.107751 0.103680 0.223747
v 0.673792 1.818353 0.537331
v 0.194160 0.103680 0.154837
v 0.840205 1.818353 0.191771
v 0.242114 0.103680 0.055261
v 0.840205 1.818353 -0.191771
v 0.242114 0.103680 -0.055261
v 0.673792 1.818353 -0.537331
v 0.194160 0.103680 -0.154837
v 0.373927 1.818353 -0.776466
v 0.107751 0.103680 -0.223746
v 0.000001 1.133524 -1.077102
v 0.000001 0.660523 -0.816603
v -0.354310 0.660523 -0.735734
v -0.467336 1.133524 -0.970435
v -0.638446 0.660523 -0.509144
v -0.842111 1.133524 -0.671562
v -0.796129 0.660523 -0.181711
v -1.050096 1.133524 -0.239678
v -0.796129 0.660523 0.181711
v -1.050096 1.133524 0.239678
v -0.638446 0.660523 0.509144
v -0.842111 1.133524 0.671562
v -0.354311 0.660523 0.735735
v -0.467336 1.133524 0.970435
v 0.000000 0.660523 0.816604
v 0.000000 1.133524 1.077102
v 0.354311 0.660523 0.735735
v 0.467337 1.133524 0.970436
v 0.638447 0.660523 0.509144
v 0.842113 1.133524 0.671562
v 0.796130 0.660523 0.181712
v 1.050097 1.133524 0.239678
v 0.796130 0.660523 -0.181711
v 1.050097 1.133524 -0.239678
v 0.638447 0.660523 -0.509144
v 0.842113 1.133524 -0.671562
v 0.354311 0.660523 -0.735734
v 0.467337 1.133524 -0.970435
v -0.498195 1.652696 -1.034514
v -0.897717 1.652696 -0.715906
v -1.119435 1.652696 -0.255504
v -1.119435 1.652696 0.255504
v -0.897717 1.652696 0.715906
v -0.498195 1.652695 1.034514
v 0.000000 1.652695 1.148224
v 0.498196 1.652695 1.034514
v 0.897718 1.652695 0.715906
v 1.119436 1.652695 0.255504
v 1.119436 1.652695 -0.255504
v 0.897718 1.652695 -0.715906
v 0.498196 1.652695 -1.034514
v 0.000001 1.652695 -1.148224
v 0.000000 0.205523 -0.397060
v -0.172277 0.205523 -0.357738
v -0.310433 0.205523 -0.247563
v -0.387104 0.205523 -0.088354
v -0.387104 0.205523 0.088354
v -0.310433 0.205523 0.247563
v -0.172277 0.205523 0.357739
v 0.000000 0.205523 0.397060
v 0.172278 0.205523 0.357739
v 0.310434 0.205523 0.247563
v 0.387105 0.205523 0.088354
v 0.387105 0.205523 -0.088354
v 0.310434 0.205523 -0.247563
v 0.172278 0.205523 -0.357739
v -0.055597 0.038985 -0.115449
v 0.000000 0.038985 -0.128139
v -0.100183 0.038985 -0.079893
v -0.124926 0.038985 -0.028514
v -0.124926 0.038985 0.028514
v -0.100183 0.038985 0.079894
v -0.055597 0.038985 0.115449
v 0.000000 0.038985 0.128139
v 0.055598 0.038985 0.115449
v 0.100184 0.038985 0.079894
v 0.124927 0.038985 0.028514
v 0.124927 0.038985 -0.028514
v 0.100184 0.038985 -0.079893
v 0.055598 0.038985 -0.115449
v -0.452924 1.756432 -0.940507
v -0.816141 1.756432 -0.650851
v -1.017711 1.756432 -0.232286
v -1.017711 1.756432 0.232286
v -0.816141 1.756432 0.650851
v -0.452924 1.756431 0.940507
v 0.000001 1.756432 1.043884
v 0.452925 1.756432 0.940507
v 0.816142 1.756431 0.650852
v 1.017713 1.756431 0.232286
v 1.017713 1.756431 -0.232286
v 0.816142 1.756431 -0.650851
v 0.452925 1.756432 -0.940507
v 0.000001 1.756431 -1.043884
v 0.000001 1.879316 -0.517078
v -0.224351 1.879316 -0.465872
v -0.404268 1.879316 -0.322393
v -0.504114 1.879316 -0.115061
v -0.504114 1.879316 0.115061
v -0.404268 1.879316 0.322393
v -0.224351 1.879316 0.465872
v 0.000001 1.879316 0.517079
v 0.224353 1.879316 0.465872
v 0.404269 1.879316 0.322393
v 0.504115 1.879316 0.115061
v 0.504115 1.879316 -0.115061
v 0.404269 1.879316 -0.322393
v 0.224352 1.879316 -0.465872
v 0.000001 0.897024 -0.963329
v -0.417972 0.897024 -0.867929
v -0.753161 0.897024 -0.600626
v -0.939176 0.897024 -0.214361
v -0.939176 0.897024 0.214361
v -0.753161 0.897024 0.600626
v -0.417972 0.897024 0.867930
v 0.000000 0.897024 0.963329
v 0.417973 0.897024 0.867930
v 0.753162 0.897024 0.600626
v 0.939177 0.897024 0.214361
v 0.939177 0.897024 -0.214361
v 0.753162 0.897024 -0.600626
v 0.417973 0.897024 -0.867930
v 0.000001 1.382514 -1.146842
v -0.497596 1.382514 -1.033269
v -0.896637 1.382514 -0.715044
v -1.118088 1.382514 -0.255196
v -1.118088 1.382514 0.255196
v -0.896637 1.382514 0.715045
v -0.497596 1.382514 1.033269
v 0.000000 1.382514 1.146842
v 0.497597 1.382514 1.033269
v 0.896637 1.382514 0.715045
v 1.118089 1.382514 0.255197
v 1.118089 1.382514 -0.255196
v 0.896637 1.382514 -0.715044
v 0.497596 1.382514 -1.033269
v -0.275496 0.433023 -0.572075
v -0.496428 0.433023 -0.395888
v -0.619035 0.433023 -0.141291
v -0.619035 0.433023 0.141291
v -0.496428 0.433023 0.395888
v -0.275496 0.433023 0.572075
v 0.000000 0.433023 0.634956
v 0.275497 0.433023 0.572075
v 0.496429 0.433023 0.395889
v 0.619036 0.433023 0.141291
v 0.619036 0.433023 -0.141291
v 0.496429 0.433023 -0.395888
v 0.275497 0.433023 -0.572075
v 0.000000 0.433023 -0.634956
v 0.000001 1.926168 -0.000000
v 0.000000 0.000000 0.000000
vt 1.000000 0.980311
vt 1.000000 1.000000
vt 0.928571 1.000000
vt 0.928571 0.980311
vt 0.857143 1.000000
vt 0.857143 0.980311
vt 0.785714 1.000000
vt 0.785714 0.980311
vt 0.714286 1.000000
vt 0.714286 0.980311
vt 0.642857 1.000000
vt 0.642857 0.980311
vt 0.571428 1.000000
vt 0.571428 0.980311
vt 0.500000 1.000000
vt 0.500000 0.980311
vt 0.428571 1.000000
vt 0.428571 0.980311
vt 0.357143 1.000000
vt 0.357143 0.980311
vt 0.285714 1.000000
vt 0.285714 0.980311
vt 0.214286 1.000000
vt 0.214286 0.980311
vt 0.142857 1.000000
vt 0.142857 0.980311
vt 0.071428 1.000000
vt 0.142857 1.000000
vt 0.071428 1.000000
vt 0.071428 0.980311
vt -0.000000 1.000000
vt -0.000000 0.980311
vt 0.857143 0.500000
vt 0.785714 0.500000
vt 0.785714 0.500000
vt 0.857143 0.500000
vt 0.071428 0.596663
vt 0.071428 0.666667
vt -0.000000 0.666667
vt -0.000000 0.596663
vt 0.071428 0.750000
vt 0.071428 0.833333
vt -0.000000 0.833333
vt -0.000000 0.750000
vt 0.142857 0.596663
vt 0.142857 0.666667
vt 0.142857 0.750000
vt 0.142857 0.833333
vt 0.214286 0.596663
vt 0.214286 0.666667
vt 0.214286 0.750000
vt 0.214286 0.833333
vt 0.285714 0.596663
vt 0.285714 0.666667
vt 0.285714 0.750000
vt 0.285714 0.833333
vt 0.357143 0.596663
vt 0.357143 0.666667
vt 0.357143 0.750000
vt 0.357143 0.833333
vt 0.428571 0.596663
vt 0.428571 0.666667
vt 0.428571 0.750000
vt 0.428571 0.833333
vt 0.500000 0.596663
vt 0.500000 0.666667
vt 0.500000 0.750000
vt 0.500000 0.833333
vt 0.571428 0.596663
vt 0.571428 0.666667
vt 0.571428 0.750000
vt 0.571428 0.833333
vt 0.642857 0.596663
vt 0.642857 0.666667
vt 0.642857 0.750000
vt 0.642857 0.833333
vt 0.714286 0.596663
vt 0.714286 0.666667
vt 0.714286 0.750000
vt 0.714286 0.833333
vt 0.785714 0.596663
vt 0.785714 0.666667
vt 0.785714 0.750000
vt 0.785714 0.833333
vt 0.857143 0.596663
vt 0.857143 0.666667
vt 0.857143 0.750000
vt 0.857143 0.833333
vt 0.928571 0.596663
vt 0.928571 0.666667
vt 0.928571 0.750000
vt 0.928571 0.833333
vt 1.000000 0.596663
vt 1.000000 0.666667
vt 1.000000 0.750000
vt 1.000000 0.833333
vt 1.000000 0.513330
vt 1.000000 0.526660
vt 0.928571 0.526660
vt 0.928571 0.513330
vt 0.857143 0.526660
vt 0.857143 0.513330
vt 0.785714 0.526660
vt 0.785714 0.513330
vt 0.714286 0.526660
vt 0.714286 0.513330
vt 0.642857 0.526660
vt 0.642857 0.513330
vt 0.571428 0.526660
vt 0.571428 0.513330
vt 0.500000 0.526660
vt 0.500000 0.513330
vt 0.428571 0.526660
vt 0.428571 0.513330
vt 0.357143 0.526660
vt 0.357143 0.513330
vt 0.285714 0.526660
vt 0.285714 0.513330
vt 0.214286 0.526660
vt 0.214286 0.513330
vt 0.142857 0.526660
vt 0.142857 0.513330
vt 0.071428 0.526660
vt 0.071428 0.513330
vt -0.000000 0.526660
vt -0.000000 0.513330
vt 0.071428 0.906822
vt -0.000000 0.906822
vt 0.142857 0.906822
vt 0.214286 0.906822
vt 0.285714 0.906822
vt 0.357143 0.906822
vt 0.428571 0.906822
vt 0.500000 0.906822
vt 0.571428 0.906822
vt 0.642857 0.906822
vt 0.714286 0.906822
vt 0.785714 0.906822
vt 0.857143 0.906822
vt 0.928572 0.906822
vt 1.000000 0.906822
vt 1.000000 1.000000
vt 0.928571 1.000000
vt 0.500000 1.000000
vt 0.428571 1.000000
vt 0.857143 1.000000
vt 0.785714 1.000000
vt 0.357143 1.000000
vt 0.285714 1.000000
vt 0.714286 1.000000
vt 0.642857 1.000000
vt 0.250000 0.250000
vt 0.354132 0.033767
vt 0.437640 0.100362
vt 0.483983 0.196595
vt 0.016017 0.303405
vt 0.016017 0.196595
vt 0.250000 0.490000
vt 0.145868 0.466233
vt 0.354132 0.466233
vt 0.062360 0.100362
vt 0.145868 0.033767
vt 0.062360 0.399638
vt 0.250000 0.010000
vt 0.571428 1.000000
vt 0.214286 1.000000
vt -0.000000 1.000000
vt 0.071428 0.500000
vt -0.000000 0.500000
vt 0.142857 0.500000
vt 0.214286 0.500000
vt 0.285714 0.500000
vt 0.357143 0.500000
vt 0.428571 0.500000
vt 0.500000 0.500000
vt 0.571428 0.500000
vt 0.642857 0.500000
vt 0.714286 0.500000
vt 0.928571 0.500000
vt 1.000000 0.500000
vt 0.750000 0.250000
vt 1.054704 0.180385
vt 0.994358 0.055131
vt 0.885612 -0.031600
vt 0.428571 0.500000
vt 0.500000 0.500000
vt 0.928571 0.500000
vt 1.000000 0.500000
vt 0.071428 0.500000
vt 0.142857 0.500000
vt 0.571428 0.500000
vt 0.642857 0.500000
vt 0.214286 0.500000
vt 0.285714 0.500000
vt 0.714286 0.500000
vt 0.357143 0.500000
vt -0.000000 0.500000
vt 0.750000 0.562546
vt 0.885608 0.531592
vt 0.614391 0.531597
vt 0.614387 -0.031604
vt 0.505642 0.055131
vt 0.445316 0.180390
vt 0.750000 -0.062546
vt 0.445312 0.319611
vt 0.505642 0.444869
vt 1.054704 0.319615
vt 0.994358 0.444869
vt 0.483983 0.303405
vt 0.437640 0.399638
vn -0.1279 -0.8183 -0.5604
vn -0.3584 -0.8183 -0.4494
vn -0.5179 -0.8183 -0.2494
vn -0.5748 -0.8183 0.0000
vn -0.5179 -0.8183 0.2494
vn -0.3584 -0.8183 0.4494
vn -0.1279 -0.8183 0.5604
vn 0.1279 -0.8183 0.5604
vn 0.3584 -0.8183 0.4494
vn 0.5179 -0.8183 0.2494
vn 0.5748 -0.8183 0.0000
vn 0.5179 -0.8183 -0.2494
vn 0.3013 -0.8755 -0.3779
vn 0.3584 -0.8183 -0.4494
vn 0.1279 -0.8183 -0.5604
vn -0.1608 0.9839 -0.0774
vn 0.2147 -0.2634 -0.9405
vn 0.1904 -0.5175 -0.8342
vn 0.6015 -0.2634 -0.7542
vn 0.5335 -0.5175 -0.6690
vn 0.8691 -0.2634 -0.4186
vn 0.7709 -0.5175 -0.3713
vn 0.9647 -0.2634 0.0000
vn 0.8557 -0.5175 0.0000
vn 0.8691 -0.2634 0.4186
vn 0.7709 -0.5175 0.3713
vn 0.6015 -0.2634 0.7542
vn 0.5335 -0.5175 0.6690
vn 0.2147 -0.2634 0.9405
vn 0.1904 -0.5175 0.8342
vn -0.2147 -0.2634 0.9405
vn -0.1904 -0.5175 0.8342
vn -0.6015 -0.2634 0.7542
vn -0.5335 -0.5175 0.6690
vn -0.8691 -0.2634 0.4186
vn -0.7709 -0.5175 0.3713
vn -0.9647 -0.2634 0.0000
vn -0.8557 -0.5175 0.0000
vn -0.8691 -0.2634 -0.4186
vn -0.7709 -0.5175 -0.3713
vn -0.6015 -0.2634 -0.7542
vn -0.5335 -0.5175 -0.6690
vn -0.2147 -0.2634 -0.9405
vn -0.1904 -0.5175 -0.8342
vn -0.1589 0.7001 -0.6961
vn -0.4452 0.7001 -0.5582
vn -0.6433 0.7001 -0.3098
vn -0.7140 0.7001 0.0000
vn -0.6433 0.7001 0.3098
vn -0.4452 0.7001 0.5582
vn -0.1589 0.7001 0.6961
vn 0.1589 0.7001 0.6961
vn 0.4452 0.7001 0.5582
vn 0.6433 0.7001 0.3098
vn 0.7140 0.7001 0.0000
vn 0.6433 0.7001 -0.3098
vn 0.4452 0.7001 -0.5582
vn 0.1589 0.7001 -0.6961
vn 0.1558 -0.7139 -0.6827
vn 0.4366 -0.7139 -0.5475
vn 0.6309 -0.7139 -0.3038
vn 0.7003 -0.7139 0.0000
vn 0.6309 -0.7139 0.3038
vn 0.4366 -0.7139 0.5475
vn 0.1558 -0.7139 0.6827
vn -0.1558 -0.7139 0.6827
vn -0.4366 -0.7139 0.5475
vn -0.6309 -0.7139 0.3038
vn -0.7003 -0.7139 0.0000
vn -0.6309 -0.7139 -0.3038
vn -0.4366 -0.7139 -0.5475
vn -0.1558 -0.7139 -0.6827
vn -0.1075 -0.8755 -0.4712
vn 0.1075 -0.8755 0.4712
vn -0.4354 -0.8755 -0.2097
vn 0.4354 -0.8755 0.2097
vn -0.4354 -0.8755 0.2097
vn -0.2276 -0.9567 0.1815
vn 0.2979 -0.9546 0.0000
vn -0.0000 -0.9567 -0.2911
vn 0.2276 -0.9567 0.1815
vn 0.2276 -0.9567 -0.1815
vn 0.0000 -0.9567 0.2911
vn -0.3013 -0.8755 0.3779
vn 0.4833 -0.8755 0.0000
vn -0.4833 -0.8755 0.0000
vn 0.3013 -0.8755 0.3779
vn 0.1075 -0.8755 -0.4712
vn -0.3013 -0.8755 -0.3779
vn -0.1075 -0.8755 0.4712
vn 0.4354 -0.8755 -0.2097
vn 0.0733 0.9442 -0.3211
vn 0.2054 0.9442 -0.2575
vn 0.2968 0.9442 -0.1429
vn 0.3294 0.9442 0.0000
vn 0.2968 0.9442 0.1429
vn 0.2054 0.9442 0.2575
vn 0.0733 0.9442 0.3211
vn -0.0733 0.9442 0.3211
vn -0.2054 0.9442 0.2575
vn -0.2968 0.9442 0.1429
vn -0.3294 0.9442 0.0000
vn -0.2968 0.9442 -0.1429
vn -0.2054 0.9442 -0.2575
vn -0.0733 0.9442 -0.3211
vn -0.0706 0.9959 0.0563
vn 0.0397 0.9839 0.1740
vn -0.0397 0.9839 -0.1740
vn 0.1113 0.9839 -0.1395
vn -0.1113 0.9839 0.1395
vn 0.1785 0.9839 0.0000
vn -0.1785 0.9839 0.0000
vn 0.1113 0.9839 0.1395
vn 0.0397 0.9839 -0.1740
vn -0.1113 0.9839 -0.1395
vn -0.0397 0.9839 0.1740
vn 0.1608 0.9839 -0.0774
vn -0.1608 0.9839 0.0774
vn 0.1608 0.9839 0.0774
vn -0.2015 -0.4246 -0.8827
vn -0.5645 -0.4246 -0.7078
vn -0.8157 -0.4246 -0.3928
vn -0.9054 -0.4246 0.0000
vn -0.8157 -0.4246 0.3928
vn -0.5645 -0.4246 0.7078
vn -0.2015 -0.4246 0.8827
vn 0.2015 -0.4246 0.8827
vn 0.5645 -0.4246 0.7078
vn 0.8157 -0.4246 0.3928
vn 0.9054 -0.4246 0.0000
vn 0.8157 -0.4246 -0.3928
vn 0.5645 -0.4246 -0.7078
vn 0.2015 -0.4246 -0.8827
vn -0.2225 -0.0050 -0.9749
vn -0.6235 -0.0050 -0.7818
vn -0.9010 -0.0050 -0.4339
vn -1.0000 -0.0050 0.0000
vn -0.9010 -0.0050 0.4339
vn -0.6235 -0.0050 0.7818
vn -0.2225 -0.0050 0.9749
vn 0.2225 -0.0050 0.9749
vn 0.6235 -0.0050 0.7818
vn 0.9010 -0.0050 0.4339
vn 1.0000 -0.0050 0.0000
vn 0.9010 -0.0050 -0.4339
vn 0.6235 -0.0050 -0.7818
vn 0.2225 -0.0050 -0.9749
vn -0.1756 -0.6143 -0.7693
vn -0.4920 -0.6143 -0.6169
vn -0.7110 -0.6143 -0.3424
vn -0.7891 -0.6143 0.0000
vn -0.7110 -0.6143 0.3424
vn -0.4920 -0.6143 0.6169
vn -0.1756 -0.6143 0.7693
vn 0.1756 -0.6143 0.7693
vn 0.4920 -0.6143 0.6169
vn 0.7110 -0.6143 0.3424
vn 0.7891 -0.6143 0.0000
vn 0.7110 -0.6143 -0.3424
vn 0.4920 -0.6143 -0.6169
vn 0.1756 -0.6143 -0.7693
vn -0.0000 0.9959 -0.0902
vn 0.0706 0.9959 0.0563
vn -0.0000 0.9959 0.0902
vn 0.0706 0.9959 -0.0563
vn -0.0925 0.9957 0.0000
vn 0.0925 0.9957 0.0000
vn -0.0706 0.9959 -0.0563
vn -0.2276 -0.9567 -0.1815
vn -0.2979 -0.9546 0.0000
usemtl None
s off
f 71/1/1 2/2/1 4/3/1 72/4/1
f 72/4/2 4/3/2 6/5/2 73/6/2
f 73/6/3 6/5/3 8/7/3 74/8/3
f 74/8/4 8/7/4 10/9/4 75/10/4
f 75/10/5 10/9/5 12/11/5 76/12/5
f 76/12/6 12/11/6 14/13/6 77/14/6
f 77/14/7 14/13/7 16/15/7 78/16/7
f 78/16/8 16/15/8 18/17/8 79/18/8
f 79/18/9 18/17/9 20/19/9 80/20/9
f 80/20/10 20/19/10 22/21/10 81/22/10
f 81/22/11 22/21/11 24/23/11 82/24/11
f 82/24/12 24/23/12 26/25/12 83/26/12
f 28/27/13 26/25/13 97/28/13 98/29/13
f 83/26/14 26/25/14 28/27/14 84/30/14
f 84/30/15 28/27/15 2/31/15 71/32/15
f 5/33/16 7/34/16 116/35/16 115/36/16
f 154/37/17 56/38/17 29/39/17 141/40/17
f 140/41/18 55/42/18 30/43/18 127/44/18
f 153/45/19 54/46/19 56/38/19 154/37/19
f 139/47/20 53/48/20 55/42/20 140/41/20
f 152/49/21 52/50/21 54/46/21 153/45/21
f 138/51/22 51/52/22 53/48/22 139/47/22
f 151/53/23 50/54/23 52/50/23 152/49/23
f 137/55/24 49/56/24 51/52/24 138/51/24
f 150/57/25 48/58/25 50/54/25 151/53/25
f 136/59/26 47/60/26 49/56/26 137/55/26
f 149/61/27 46/62/27 48/58/27 150/57/27
f 135/63/28 45/64/28 47/60/28 136/59/28
f 148/65/29 44/66/29 46/62/29 149/61/29
f 134/67/30 43/68/30 45/64/30 135/63/30
f 147/69/31 42/70/31 44/66/31 148/65/31
f 133/71/32 41/72/32 43/68/32 134/67/32
f 146/73/33 40/74/33 42/70/33 147/69/33
f 132/75/34 39/76/34 41/72/34 133/71/34
f 145/77/35 38/78/35 40/74/35 146/73/35
f 131/79/36 37/80/36 39/76/36 132/75/36
f 144/81/37 36/82/37 38/78/37 145/77/37
f 130/83/38 35/84/38 37/80/38 131/79/38
f 143/85/39 34/86/39 36/82/39 144/81/39
f 129/87/40 33/88/40 35/84/40 130/83/40
f 142/89/41 32/90/41 34/86/41 143/85/41
f 128/91/42 31/92/42 33/88/42 129/87/42
f 141/93/43 29/94/43 32/90/43 142/89/43
f 127/95/44 30/96/44 31/92/44 128/91/44
f 112/97/45 70/98/45 57/99/45 99/100/45
f 99/100/46 57/99/46 58/101/46 100/102/46
f 100/102/47 58/101/47 59/103/47 101/104/47
f 101/104/48 59/103/48 60/105/48 102/106/48
f 102/106/49 60/105/49 61/107/49 103/108/49
f 103/108/50 61/107/50 62/109/50 104/110/50
f 104/110/51 62/109/51 63/111/51 105/112/51
f 105/112/52 63/111/52 64/113/52 106/114/52
f 106/114/53 64/113/53 65/115/53 107/116/53
f 107/116/54 65/115/54 66/117/54 108/118/54
f 108/118/55 66/117/55 67/119/55 109/120/55
f 109/120/56 67/119/56 68/121/56 110/122/56
f 110/122/57 68/121/57 69/123/57 111/124/57
f 111/124/58 69/123/58 70/125/58 112/126/58
f 167/127/59 84/30/59 71/32/59 168/128/59
f 166/129/60 83/26/60 84/30/60 167/127/60
f 165/130/61 82/24/61 83/26/61 166/129/61
f 164/131/62 81/22/62 82/24/62 165/130/62
f 163/132/63 80/20/63 81/22/63 164/131/63
f 162/133/64 79/18/64 80/20/64 163/132/64
f 161/134/65 78/16/65 79/18/65 162/133/65
f 160/135/66 77/14/66 78/16/66 161/134/66
f 159/136/67 76/12/67 77/14/67 160/135/67
f 158/137/68 75/10/68 76/12/68 159/136/68
f 157/138/69 74/8/69 75/10/69 158/137/69
f 156/139/70 73/6/70 74/8/70 157/138/70
f 155/140/71 72/4/71 73/6/71 156/139/71
f 168/141/72 71/1/72 72/4/72 155/140/72
f 4/3/73 2/2/73 86/142/73 85/143/73
f 18/17/74 16/15/74 92/144/74 93/145/74
f 8/7/75 6/5/75 87/146/75 88/147/75
f 22/21/76 20/19/76 94/148/76 95/149/76
f 12/11/77 10/9/77 89/150/77 90/151/77
f 170/152/78 91/153/78 90/154/78 89/155/78
f 170/152/79 96/156/79 95/157/79
f 86/158/80 98/159/80 170/152/80 85/160/80
f 170/152/81 95/157/81 94/161/81 93/162/81
f 98/159/82 97/163/82 96/156/82 170/152/82
f 170/152/83 93/162/83 92/164/83 91/153/83
f 14/13/84 12/11/84 90/151/84 91/165/84
f 24/23/85 22/21/85 95/149/85 96/166/85
f 10/9/86 8/7/86 88/147/86 89/150/86
f 20/19/87 18/17/87 93/145/87 94/148/87
f 2/31/88 28/27/88 98/29/88 86/167/88
f 6/5/89 4/3/89 85/143/89 87/146/89
f 16/15/90 14/13/90 91/165/90 92/144/90
f 26/25/91 24/23/91 96/166/91 97/28/91
f 27/168/92 111/124/92 112/126/92 1/169/92
f 25/170/93 110/122/93 111/124/93 27/168/93
f 23/171/94 109/120/94 110/122/94 25/170/94
f 21/172/95 108/118/95 109/120/95 23/171/95
f 19/173/96 107/116/96 108/118/96 21/172/96
f 17/174/97 106/114/97 107/116/97 19/173/97
f 15/175/98 105/112/98 106/114/98 17/174/98
f 13/176/99 104/110/99 105/112/99 15/175/99
f 11/177/100 103/108/100 104/110/100 13/176/100
f 9/178/101 102/106/101 103/108/101 11/177/101
f 7/34/102 101/104/102 102/106/102 9/178/102
f 5/33/103 100/102/103 101/104/103 7/34/103
f 3/179/104 99/100/104 100/102/104 5/33/104
f 1/180/105 112/97/105 99/100/105 3/179/105
f 169/181/106 117/182/106 118/183/106 119/184/106
f 15/175/107 17/174/107 121/185/107 120/186/107
f 1/180/108 3/179/108 114/187/108 113/188/108
f 25/170/109 27/168/109 126/189/109 125/190/109
f 11/177/110 13/176/110 119/191/110 118/192/110
f 21/172/111 23/171/111 124/193/111 123/194/111
f 7/34/112 9/178/112 117/195/112 116/35/112
f 17/174/113 19/173/113 122/196/113 121/185/113
f 27/168/114 1/169/114 113/197/114 126/189/114
f 3/179/115 5/33/115 115/36/115 114/187/115
f 13/176/116 15/175/116 120/186/116 119/191/116
f 23/171/117 25/170/117 125/190/117 124/193/117
f 9/178/118 11/177/118 118/192/118 117/195/118
f 19/173/119 21/172/119 123/194/119 122/196/119
f 29/94/120 127/95/120 128/91/120 32/90/120
f 32/90/121 128/91/121 129/87/121 34/86/121
f 34/86/122 129/87/122 130/83/122 36/82/122
f 36/82/123 130/83/123 131/79/123 38/78/123
f 38/78/124 131/79/124 132/75/124 40/74/124
f 40/74/125 132/75/125 133/71/125 42/70/125
f 42/70/126 133/71/126 134/67/126 44/66/126
f 44/66/127 134/67/127 135/63/127 46/62/127
f 46/62/128 135/63/128 136/59/128 48/58/128
f 48/58/129 136/59/129 137/55/129 50/54/129
f 50/54/130 137/55/130 138/51/130 52/50/130
f 52/50/131 138/51/131 139/47/131 54/46/131
f 54/46/132 139/47/132 140/41/132 56/38/132
f 56/38/133 140/41/133 127/44/133 29/39/133
f 70/98/134 141/93/134 142/89/134 57/99/134
f 57/99/135 142/89/135 143/85/135 58/101/135
f 58/101/136 143/85/136 144/81/136 59/103/136
f 59/103/137 144/81/137 145/77/137 60/105/137
f 60/105/138 145/77/138 146/73/138 61/107/138
f 61/107/139 146/73/139 147/69/139 62/109/139
f 62/109/140 147/69/140 148/65/140 63/111/140
f 63/111/141 148/65/141 149/61/141 64/113/141
f 64/113/142 149/61/142 150/57/142 65/115/142
f 65/115/143 150/57/143 151/53/143 66/117/143
f 66/117/144 151/53/144 152/49/144 67/119/144
f 67/119/145 152/49/145 153/45/145 68/121/145
f 68/121/146 153/45/146 154/37/146 69/123/146
f 69/123/147 154/37/147 141/40/147 70/125/147
f 30/96/148 168/141/148 155/140/148 31/92/148
f 31/92/149 155/140/149 156/139/149 33/88/149
f 33/88/150 156/139/150 157/138/150 35/84/150
f 35/84/151 157/138/151 158/137/151 37/80/151
f 37/80/152 158/137/152 159/136/152 39/76/152
f 39/76/153 159/136/153 160/135/153 41/72/153
f 41/72/154 160/135/154 161/134/154 43/68/154
f 43/68/155 161/134/155 162/133/155 45/64/155
f 45/64/156 162/133/156 163/132/156 47/60/156
f 47/60/157 163/132/157 164/131/157 49/56/157
f 49/56/158 164/131/158 165/130/158 51/52/158
f 51/52/159 165/130/159 166/129/159 53/48/159
f 53/48/160 166/129/160 167/127/160 55/42/160
f 55/42/161 167/127/161 168/128/161 30/43/161
f 113/198/162 114/199/162 169/181/162 126/200/162
f 169/181/163 121/201/163 122/202/163 123/203/163
f 169/181/164 119/184/164 120/204/164 121/201/164
f 126/200/165 169/181/165 124/205/165 125/206/165
f 169/181/166 116/207/166 117/182/166
f 124/205/167 169/181/167 123/203/167
f 114/199/168 115/208/168 116/207/168 169/181/168
f 85/160/169 170/152/169 88/209/169 87/210/169
f 88/209/170 170/152/170 89/155/170
