# Blender v2.80 (sub 75) OBJ File: 'models3.blend'
# www.blender.org
mtllib marshmallow.mtl
o Cylinder.003_Cylinder.004
v 0.000000 0.000000 -2.248595
v 0.000000 4.497190 -2.248595
v 0.769065 0.000000 -2.112988
v 0.769065 4.497190 -2.112988
v 1.445369 0.000000 -1.722524
v 1.445369 4.497190 -1.722524
v 1.947341 0.000000 -1.124298
v 1.947341 4.497190 -1.124298
v 2.214434 0.000000 -0.390465
v 2.214434 4.497190 -0.390465
v 2.214434 0.000000 0.390465
v 2.214434 4.497190 0.390465
v 1.947341 0.000000 1.124297
v 1.947341 4.497190 1.124297
v 1.445369 0.000000 1.722524
v 1.445369 4.497190 1.722524
v 0.769065 0.000000 2.112988
v 0.769065 4.497190 2.112988
v 0.000000 0.000000 2.248595
v 0.000000 4.497190 2.248595
v -0.769064 0.000000 2.112988
v -0.769064 4.497190 2.112988
v -1.445369 0.000000 1.722524
v -1.445369 4.497190 1.722524
v -1.947340 0.000000 1.124298
v -1.947340 4.497190 1.124298
v -2.214434 0.000000 0.390465
v -2.214434 4.497190 0.390465
v -2.214434 0.000000 -0.390464
v -2.214434 4.497190 -0.390464
v -1.947341 0.000000 -1.124297
v -1.947341 4.497190 -1.124297
v -1.445370 0.000000 -1.722523
v -1.445370 4.497190 -1.722523
v -0.769066 0.000000 -2.112988
v -0.769066 4.497190 -2.112988
v 0.000000 0.241397 -2.342648
v -0.798879 2.248595 -2.194897
v 0.000000 4.255794 -2.342648
v 0.801233 4.255794 -2.201369
v -1.501399 2.248595 -1.789296
v 0.801233 0.241397 -2.201369
v 1.505825 4.255794 -1.794573
v -2.022829 2.248595 -1.167879
v 1.505825 0.241397 -1.794573
v 2.028792 4.255794 -1.171324
v -2.300276 2.248595 -0.405600
v 2.028792 0.241397 -1.171324
v 2.307058 4.255794 -0.406797
v -2.300275 2.248595 0.405601
v 2.307058 0.241397 -0.406797
v 2.307058 4.255794 0.406797
v -2.022828 2.248595 1.167881
v 2.307058 0.241397 0.406797
v 2.028792 4.255794 1.171324
v -1.501398 2.248595 1.789297
v 2.028792 0.241397 1.171324
v 1.505825 4.255794 1.794572
v -0.798877 2.248595 2.194897
v 1.505825 0.241397 1.794572
v 0.801233 4.255794 2.201369
v 0.000000 2.248595 2.335760
v 0.801233 0.241397 2.201369
v 0.000000 4.255794 2.342647
v 0.798877 2.248595 2.194897
v 0.000000 0.241397 2.342647
v -0.801232 4.255794 2.201369
v 1.501398 2.248595 1.789297
v -0.801232 0.241397 2.201369
v -1.505824 4.255794 1.794572
v 2.022828 2.248595 1.167880
v -1.505824 0.241397 1.794572
v -2.028792 4.255794 1.171324
v 2.300275 2.248595 0.405601
v -2.028792 0.241397 1.171324
v -2.307058 4.255794 0.406797
v 2.300275 2.248595 -0.405601
v -2.307058 0.241397 0.406797
v -2.307058 4.255794 -0.406796
v 2.022828 2.248595 -1.167881
v -2.307058 0.241397 -0.406796
v -2.028793 4.255794 -1.171323
v 1.501398 2.248595 -1.789297
v -2.028793 0.241397 -1.171323
v -1.505826 4.255794 -1.794572
v 0.798877 2.248595 -2.194897
v -1.505826 0.241397 -1.794572
v -0.801234 4.255794 -2.201369
v 0.000000 2.248595 -2.335761
v -0.801234 0.241397 -2.201369
vt 1.000000 0.944444
vt 1.000000 1.000000
vt 0.944444 1.000000
vt 0.944444 0.944444
vt 0.888889 1.000000
vt 0.888889 0.944444
vt 0.833333 1.000000
vt 0.833333 0.944444
vt 0.777778 1.000000
vt 0.777778 0.944444
vt 0.722222 1.000000
vt 0.722222 0.944444
vt 0.666667 1.000000
vt 0.666667 0.944444
vt 0.611111 1.000000
vt 0.611111 0.944444
vt 0.555555 1.000000
vt 0.555555 0.944444
vt 0.500000 1.000000
vt 0.500000 0.944444
vt 0.444444 1.000000
vt 0.444444 0.944444
vt 0.388889 1.000000
vt 0.388889 0.944444
vt 0.333333 1.000000
vt 0.333333 0.944444
vt 0.277778 1.000000
vt 0.277778 0.944444
vt 0.222222 1.000000
vt 0.222222 0.944444
vt 0.166666 1.000000
vt 0.166666 0.944444
vt 0.111111 1.000000
vt 0.111111 0.944444
vt 0.332085 0.475526
vt 0.250000 0.490000
vt 0.167915 0.475526
vt 0.095731 0.433851
vt 0.042154 0.370000
vt 0.013646 0.291675
vt 0.013646 0.208324
vt 0.042154 0.130000
vt 0.095731 0.066149
vt 0.167915 0.024474
vt 0.250000 0.010000
vt 0.332085 0.024474
vt 0.404269 0.066149
vt 0.457846 0.130000
vt 0.486354 0.208324
vt 0.486354 0.291676
vt 0.457846 0.370000
vt 0.404269 0.433851
vt 0.055555 1.000000
vt 0.055555 0.944444
vt -0.000000 1.000000
vt -0.000000 0.944444
vt 0.750000 0.490000
vt 0.832085 0.475526
vt 0.904269 0.433851
vt 0.957846 0.370000
vt 0.986354 0.291676
vt 0.986354 0.208324
vt 0.957846 0.130000
vt 0.904269 0.066149
vt 0.832085 0.024474
vt 0.750000 0.010000
vt 0.667915 0.024474
vt 0.595731 0.066149
vt 0.542154 0.130000
vt 0.513646 0.208324
vt 0.513646 0.291675
vt 0.542154 0.370000
vt 0.595731 0.433851
vt 0.667915 0.475526
vt 0.055555 0.500000
vt 0.055555 0.555556
vt -0.000000 0.555556
vt -0.000000 0.500000
vt 0.111111 0.750000
vt 0.055555 0.750000
vt 0.111111 0.555556
vt 0.111111 0.500000
vt 0.166666 0.750000
vt 0.166666 0.555556
vt 0.166666 0.500000
vt 0.222222 0.750000
vt 0.222222 0.555556
vt 0.222222 0.500000
vt 0.277778 0.750000
vt 0.277778 0.555556
vt 0.277778 0.500000
vt 0.333333 0.750000
vt 0.333333 0.555556
vt 0.333333 0.500000
vt 0.388889 0.750000
vt 0.388889 0.555556
vt 0.388889 0.500000
vt 0.444444 0.750000
vt 0.444444 0.555556
vt 0.444444 0.500000
vt 0.500000 0.750000
vt 0.500000 0.555556
vt 0.500000 0.500000
vt 0.555555 0.750000
vt 0.555555 0.555556
vt 0.555555 0.500000
vt 0.611111 0.750000
vt 0.611111 0.555556
vt 0.611111 0.500000
vt 0.666667 0.750000
vt 0.666667 0.555556
vt 0.666667 0.500000
vt 0.722222 0.750000
vt 0.722222 0.555556
vt 0.722222 0.500000
vt 0.777778 0.750000
vt 0.777778 0.555556
vt 0.777778 0.500000
vt 0.833333 0.750000
vt 0.833333 0.555556
vt 0.833333 0.500000
vt 0.888889 0.750000
vt 0.888889 0.555556
vt 0.888889 0.500000
vt 0.944444 0.750000
vt 0.944444 0.555556
vt 0.944444 0.500000
vt 1.000000 0.750000
vt 1.000000 0.555556
vt 1.000000 0.500000
vt -0.000000 0.750000
vn 0.1621 0.3582 -0.9194
vn 0.4668 0.3582 -0.8085
vn 0.7152 0.3582 -0.6001
vn 0.8773 0.3582 -0.3193
vn 0.9336 0.3582 0.0000
vn 0.8773 0.3582 0.3193
vn 0.7152 0.3582 0.6001
vn 0.4668 0.3582 0.8085
vn 0.1621 0.3582 0.9194
vn -0.1621 0.3582 0.9194
vn -0.4668 0.3582 0.8085
vn -0.7152 0.3582 0.6001
vn -0.8773 0.3582 0.3193
vn -0.9336 0.3582 0.0000
vn -0.8773 0.3582 -0.3193
vn -0.7152 0.3582 -0.6001
vn 0.0000 1.0000 -0.0000
vn -0.4668 0.3582 -0.8085
vn -0.1621 0.3582 -0.9194
vn 0.0000 -1.0000 0.0000
vn -0.1621 -0.3582 -0.9194
vn -0.5000 0.0034 -0.8660
vn -0.5000 -0.0034 -0.8660
vn -0.4668 -0.3582 -0.8085
vn -0.7660 0.0034 -0.6428
vn -0.7660 -0.0034 -0.6428
vn -0.7152 -0.3582 -0.6001
vn -0.9397 0.0034 -0.3420
vn -0.9397 -0.0034 -0.3420
vn -0.8773 -0.3582 -0.3193
vn -1.0000 0.0034 0.0000
vn -1.0000 -0.0034 0.0000
vn -0.9336 -0.3582 0.0000
vn -0.9397 0.0034 0.3420
vn -0.9397 -0.0034 0.3420
vn -0.8773 -0.3582 0.3193
vn -0.7660 0.0034 0.6428
vn -0.7660 -0.0034 0.6428
vn -0.7152 -0.3582 0.6001
vn -0.5000 0.0034 0.8660
vn -0.5000 -0.0034 0.8660
vn -0.4668 -0.3582 0.8085
vn -0.1736 0.0034 0.9848
vn -0.1736 -0.0034 0.9848
vn -0.1621 -0.3582 0.9194
vn 0.1736 0.0034 0.9848
vn 0.1736 -0.0034 0.9848
vn 0.1621 -0.3582 0.9194
vn 0.5000 0.0034 0.8660
vn 0.5000 -0.0034 0.8660
vn 0.4668 -0.3582 0.8085
vn 0.7660 0.0034 0.6428
vn 0.7660 -0.0034 0.6428
vn 0.7152 -0.3582 0.6001
vn 0.9397 0.0034 0.3420
vn 0.9397 -0.0034 0.3420
vn 0.8773 -0.3582 0.3193
vn 1.0000 0.0034 0.0000
vn 1.0000 -0.0034 0.0000
vn 0.9336 -0.3582 0.0000
vn 0.9397 0.0034 -0.3420
vn 0.9397 -0.0034 -0.3420
vn 0.8773 -0.3582 -0.3193
vn 0.7660 0.0034 -0.6428
vn 0.7660 -0.0034 -0.6428
vn 0.7152 -0.3582 -0.6001
vn 0.5000 0.0034 -0.8660
vn 0.5000 -0.0034 -0.8660
vn 0.4668 -0.3582 -0.8085
vn 0.1736 -0.0034 -0.9848
vn 0.1736 0.0034 -0.9848
vn 0.1621 -0.3582 -0.9194
vn -0.1736 -0.0034 -0.9848
vn -0.1736 0.0034 -0.9848
usemtl None
s off
f 39/1/1 2/2/1 4/3/1 40/4/1
f 40/4/2 4/3/2 6/5/2 43/6/2
f 43/6/3 6/5/3 8/7/3 46/8/3
f 46/8/4 8/7/4 10/9/4 49/10/4
f 49/10/5 10/9/5 12/11/5 52/12/5
f 52/12/6 12/11/6 14/13/6 55/14/6
f 55/14/7 14/13/7 16/15/7 58/16/7
f 58/16/8 16/15/8 18/17/8 61/18/8
f 61/18/9 18/17/9 20/19/9 64/20/9
f 64/20/10 20/19/10 22/21/10 67/22/10
f 67/22/11 22/21/11 24/23/11 70/24/11
f 70/24/12 24/23/12 26/25/12 73/26/12
f 73/26/13 26/25/13 28/27/13 76/28/13
f 76/28/14 28/27/14 30/29/14 79/30/14
f 79/30/15 30/29/15 32/31/15 82/32/15
f 82/32/16 32/31/16 34/33/16 85/34/16
f 4/35/17 2/36/17 36/37/17 34/38/17 32/39/17 30/40/17 28/41/17 26/42/17 24/43/17 22/44/17 20/45/17 18/46/17 16/47/17 14/48/17 12/49/17 10/50/17 8/51/17 6/52/17
f 85/34/18 34/33/18 36/53/18 88/54/18
f 88/54/19 36/53/19 2/55/19 39/56/19
f 1/57/20 3/58/20 5/59/20 7/60/20 9/61/20 11/62/20 13/63/20 15/64/20 17/65/20 19/66/20 21/67/20 23/68/20 25/69/20 27/70/20 29/71/20 31/72/20 33/73/20 35/74/20
f 35/75/21 90/76/21 37/77/21 1/78/21
f 41/79/22 38/80/22 90/76/22 87/81/22
f 85/34/23 88/54/23 38/80/23 41/79/23
f 33/82/24 87/81/24 90/76/24 35/75/24
f 44/83/25 41/79/25 87/81/25 84/84/25
f 82/32/26 85/34/26 41/79/26 44/83/26
f 31/85/27 84/84/27 87/81/27 33/82/27
f 47/86/28 44/83/28 84/84/28 81/87/28
f 79/30/29 82/32/29 44/83/29 47/86/29
f 29/88/30 81/87/30 84/84/30 31/85/30
f 50/89/31 47/86/31 81/87/31 78/90/31
f 76/28/32 79/30/32 47/86/32 50/89/32
f 27/91/33 78/90/33 81/87/33 29/88/33
f 53/92/34 50/89/34 78/90/34 75/93/34
f 73/26/35 76/28/35 50/89/35 53/92/35
f 25/94/36 75/93/36 78/90/36 27/91/36
f 56/95/37 53/92/37 75/93/37 72/96/37
f 70/24/38 73/26/38 53/92/38 56/95/38
f 23/97/39 72/96/39 75/93/39 25/94/39
f 59/98/40 56/95/40 72/96/40 69/99/40
f 67/22/41 70/24/41 56/95/41 59/98/41
f 21/100/42 69/99/42 72/96/42 23/97/42
f 62/101/43 59/98/43 69/99/43 66/102/43
f 64/20/44 67/22/44 59/98/44 62/101/44
f 19/103/45 66/102/45 69/99/45 21/100/45
f 65/104/46 62/101/46 66/102/46 63/105/46
f 61/18/47 64/20/47 62/101/47 65/104/47
f 17/106/48 63/105/48 66/102/48 19/103/48
f 68/107/49 65/104/49 63/105/49 60/108/49
f 58/16/50 61/18/50 65/104/50 68/107/50
f 15/109/51 60/108/51 63/105/51 17/106/51
f 71/110/52 68/107/52 60/108/52 57/111/52
f 55/14/53 58/16/53 68/107/53 71/110/53
f 13/112/54 57/111/54 60/108/54 15/109/54
f 74/113/55 71/110/55 57/111/55 54/114/55
f 52/12/56 55/14/56 71/110/56 74/113/56
f 11/115/57 54/114/57 57/111/57 13/112/57
f 77/116/58 74/113/58 54/114/58 51/117/58
f 49/10/59 52/12/59 74/113/59 77/116/59
f 9/118/60 51/117/60 54/114/60 11/115/60
f 80/119/61 77/116/61 51/117/61 48/120/61
f 46/8/62 49/10/62 77/116/62 80/119/62
f 7/121/63 48/120/63 51/117/63 9/118/63
f 83/122/64 80/119/64 48/120/64 45/123/64
f 43/6/65 46/8/65 80/119/65 83/122/65
f 5/124/66 45/123/66 48/120/66 7/121/66
f 86/125/67 83/122/67 45/123/67 42/126/67
f 40/4/68 43/6/68 83/122/68 86/125/68
f 3/127/69 42/126/69 45/123/69 5/124/69
f 89/128/70 39/1/70 40/4/70 86/125/70
f 37/129/71 89/128/71 86/125/71 42/126/71
f 1/130/72 37/129/72 42/126/72 3/127/72
f 88/54/73 39/56/73 89/131/73 38/80/73
f 38/80/74 89/131/74 37/77/74 90/76/74
